<?xml version="1.0" encoding="UTF-8"?>
<svg version="1.1" xmlns="http://www.w3.org/2000/svg" width="80" height="80">
<path d="M0 0 C12.39125911 0 12.39125911 0 17.40234375 0.40234375 C18.47677734 0.48806641 19.55121094 0.57378906 20.65820312 0.66210938 C22.28145508 0.79842773 22.28145508 0.79842773 23.9375 0.9375 C25.04673828 1.02451172 26.15597656 1.11152344 27.29882812 1.20117188 C35.5093209 1.87172029 35.5093209 1.87172029 38.27954102 2.59594727 C38.84729248 2.72928467 39.41504395 2.86262207 40 3 C40.33 2.67 40.66 2.34 41 2 C42.64746715 1.77148763 44.30359661 1.60479762 45.9609375 1.46484375 C46.99089844 1.37783203 48.02085938 1.29082031 49.08203125 1.20117188 C50.16871094 1.11416016 51.25539062 1.02714844 52.375 0.9375 C53.42300781 0.84662109 54.47101562 0.75574219 55.55078125 0.66210938 C56.59363281 0.57638672 57.63648438 0.49066406 58.7109375 0.40234375 C60.12318604 0.28620728 60.12318604 0.28620728 61.56396484 0.16772461 C66.37057826 -0.06690261 71.18766351 0 76 0 C76 9.24 76 18.48 76 28 C72.04 28.495 72.04 28.495 68 29 C65.61259459 29.93786348 65.61259459 29.93786348 64 31 C64.0825 31.928125 64.165 32.85625 64.25 33.8125 C64.1675 34.864375 64.085 35.91625 64 37 C62.125 38.5625 62.125 38.5625 60 40 C59.690625 40.845625 59.38125 41.69125 59.0625 42.5625 C58 45 58 45 55.5625 46 C54.2940625 46.495 54.2940625 46.495 53 47 C51.98133771 48.65532623 50.98189187 50.32260138 50 52 C47.375 53.75 47.375 53.75 45 55 C44.67 55.33 44.34 55.66 44 56 C41.98035801 56.07244053 39.95832876 56.08377188 37.9375 56.0625 C36.28041016 56.04896484 36.28041016 56.04896484 34.58984375 56.03515625 C33.73519531 56.02355469 32.88054688 56.01195312 32 56 C31.72414063 55.35546875 31.44828125 54.7109375 31.1640625 54.046875 C30.15242111 51.71229528 30.15242111 51.71229528 27.375 51.25 C26.59125 51.1675 25.8075 51.085 25 51 C24.505 48.525 24.505 48.525 24 46 C22.35 45.67 20.7 45.34 19 45 C18.505 42.525 18.505 42.525 18 40 C17.195625 39.855625 16.39125 39.71125 15.5625 39.5625 C13 39 13 39 12 38 C11.8671875 36.1875 11.8671875 36.1875 11.875 34 C11.87242188 33.278125 11.86984375 32.55625 11.8671875 31.8125 C12 30 12 30 13 29 C8.71 28.67 4.42 28.34 0 28 C0 18.76 0 9.52 0 0 Z " fill="#9E7247" transform="translate(2,14)"/>
<path d="M0 0 C4.5036762 0.21689092 9.00521988 0.4422469 13.50708008 0.68969727 C15.0383939 0.77126571 16.56998447 0.84780135 18.10180664 0.91918945 C20.30447132 1.02271826 22.50550443 1.14434476 24.70703125 1.26953125 C25.39150833 1.29779495 26.07598541 1.32605865 26.78120422 1.35517883 C29.73312561 1.53869478 31.5971798 1.68165588 33.95581055 3.5456543 C34.47268433 4.26555542 34.47268433 4.26555542 35 5 C34.44570313 5.54269531 33.89140625 6.08539063 33.3203125 6.64453125 C32.59585938 7.35996094 31.87140625 8.07539063 31.125 8.8125 C30.40570313 9.52019531 29.68640625 10.22789063 28.9453125 10.95703125 C26.84641063 13.04399194 26.84641063 13.04399194 25 16 C25.08571661 18.09291157 25.08571661 18.09291157 26 20 C28.84110151 22.29468448 28.84110151 22.29468448 32.1875 22 C37.08600934 20.71514509 40.18769563 18.23798319 44 15 C48.15858715 16.60021643 50.76702246 19.64893607 53.6875 22.875 C54.18572266 23.40480469 54.68394531 23.93460938 55.19726562 24.48046875 C59.61717335 29.31418059 59.61717335 29.31418059 60 33 C58.68 33.66 57.36 34.32 56 35 C55.01 34.34 54.02 33.68 53 33 C53.66 33.99 54.32 34.98 55 36 C54.625 38.6875 54.625 38.6875 54 41 C51.6875 41.625 51.6875 41.625 49 42 C48.01 41.34 47.02 40.68 46 40 C46.66 40.99 47.32 41.98 48 43 C47.625 45.1875 47.625 45.1875 47 47 C43.25 48.125 43.25 48.125 41 47 C41.495 48.98 41.495 48.98 42 51 C40.02 51.495 40.02 51.495 38 52 C37.7525 51.13375 37.505 50.2675 37.25 49.375 C35.25949887 44.00064695 33.21940677 40.43572316 28 38 C27.33333333 36.66666667 26.66666667 35.33333333 26 34 C25.34 33.67 24.68 33.34 24 33 C22 32 22 32 21.1875 30.0625 C19.71466261 27.504414 18.06473709 26.65592899 15.3515625 25.59375 C10.329888 24.3258189 5.15308421 24.2656229 0 24 C0 16.08 0 8.16 0 0 Z " fill="#F3CC84" transform="translate(4,16)"/>
<path d="M0 0 C2.98043283 -0.01958663 5.96111053 0.0044079 8.94140625 0.0390625 C8.94140625 7.6290625 8.94140625 15.2190625 8.94140625 23.0390625 C5.97140625 23.6990625 3.00140625 24.3590625 -0.05859375 25.0390625 C-1.37859375 25.3690625 -2.69859375 25.6990625 -4.05859375 26.0390625 C-6.6015625 24.0546875 -6.6015625 24.0546875 -9.24609375 21.2890625 C-10.12652344 20.38671875 -11.00695312 19.484375 -11.9140625 18.5546875 C-14.05859375 16.0390625 -14.05859375 16.0390625 -15.05859375 13.0390625 C-13.73859375 13.0390625 -12.41859375 13.0390625 -11.05859375 13.0390625 C-11.05859375 12.3790625 -11.05859375 11.7190625 -11.05859375 11.0390625 C-16.27932797 11.73999441 -20.04264577 12.72616599 -24.12109375 16.1640625 C-27.02495787 18.5712899 -28.76136197 19.44075657 -32.55859375 19.4140625 C-33.71359375 19.2903125 -34.86859375 19.1665625 -36.05859375 19.0390625 C-36.38859375 18.0490625 -36.71859375 17.0590625 -37.05859375 16.0390625 C-35.13188558 13.034704 -32.52607314 10.60505343 -30.05859375 8.0390625 C-29.25808594 7.02779297 -29.25808594 7.02779297 -28.44140625 5.99609375 C-24.63656352 1.74413816 -21.25848232 0.63501857 -15.72924805 0.20654297 C-10.48591115 -0.02688025 -5.24631237 0.05995786 0 0 Z " fill="#FDC29A" transform="translate(67.05859375,16.9609375)"/>
<path d="M0 0 C2.625 0.375 2.625 0.375 5 1 C5.33 2.65 5.66 4.3 6 6 C7.65 6.33 9.3 6.66 11 7 C11.33 8.65 11.66 10.3 12 12 C13.65 12.33 15.3 12.66 17 13 C17.33 14.65 17.66 16.3 18 18 C19.32 18.33 20.64 18.66 22 19 C21.67 20.65 21.34 22.3 21 24 C19.35 23.67 17.7 23.34 16 23 C16 22.01 16 21.02 16 20 C14.35 19.67 12.7 19.34 11 19 C10.67 17.35 10.34 15.7 10 14 C8.35 13.67 6.7 13.34 5 13 C4.67 11.35 4.34 9.7 4 8 C2.35 7.67 0.7 7.34 -1 7 C-1.625 4.625 -1.625 4.625 -2 2 C-1.34 1.34 -0.68 0.68 0 0 Z " fill="#FABF98" transform="translate(18,44)"/>
<path d="M0 0 C8.12718568 0 15.93490439 0.23400189 24 0.875 C25.11761719 0.95363281 26.23523438 1.03226563 27.38671875 1.11328125 C28.45535156 1.19707031 29.52398438 1.28085938 30.625 1.3671875 C31.58664063 1.44050293 32.54828125 1.51381836 33.5390625 1.58935547 C36 2 36 2 39 4 C39 4.66 39 5.32 39 6 C38.30849854 5.8453125 37.61699707 5.690625 36.90454102 5.53125 C33.76657186 4.95730523 30.71068085 4.70491918 27.52734375 4.5 C26.29822266 4.4175 25.06910156 4.335 23.80273438 4.25 C21.22202147 4.08308173 18.64129223 3.91641582 16.06054688 3.75 C14.83271484 3.6675 13.60488281 3.585 12.33984375 3.5 C11.21956787 3.4278125 10.09929199 3.355625 8.94506836 3.28125 C6 3 6 3 2 2 C2 9.92 2 17.84 2 26 C6.29 26 10.58 26 15 26 C15.33 26.99 15.66 27.98 16 29 C10.72 28.67 5.44 28.34 0 28 C0 18.76 0 9.52 0 0 Z " fill="#977B45" transform="translate(2,14)"/>
<path d="M0 0 C0 0.33 0 0.66 0 1 C-0.88671387 1.01345459 -1.77342773 1.02690918 -2.68701172 1.04077148 C-6.02582954 1.11242648 -9.35875678 1.22346824 -12.6953125 1.36010742 C-14.13006827 1.41105025 -15.56545072 1.44693542 -17.00097656 1.46655273 C-24.69422843 1.58189786 -30.71298785 1.93183467 -36.7578125 7.28515625 C-38.22558167 8.80673399 -39.64279496 10.37903127 -41 12 C-41.74749512 12.88099365 -42.49499023 13.7619873 -43.26513672 14.66967773 C-45.19905306 16.78317524 -45.19905306 16.78317524 -45 19 C-39.12263706 19.76188038 -36.49214703 18.99336212 -31.6875 15.4375 C-30.86636719 14.77621094 -30.04523437 14.11492188 -29.19921875 13.43359375 C-28.47347656 12.96050781 -27.74773438 12.48742188 -27 12 C-26.01 12.33 -25.02 12.66 -24 13 C-36.6345527 23.04708439 -36.6345527 23.04708439 -41.625 22.875 C-46.44408428 21.62560778 -46.44408428 21.62560778 -48 19 C-47.56355579 15.43319731 -46.00820306 13.54695652 -43.625 10.9375 C-43.01914062 10.26589844 -42.41328125 9.59429687 -41.7890625 8.90234375 C-40.90347656 7.96068359 -40.90347656 7.96068359 -40 7 C-39.47148438 6.42378906 -38.94296875 5.84757812 -38.3984375 5.25390625 C-37 4 -37 4 -35 4 C-34.77578369 3.35853027 -34.55156738 2.71706055 -34.32055664 2.05615234 C-33 0 -33 0 -30.71264648 -0.66943359 C-29.30607788 -0.78279053 -29.30607788 -0.78279053 -27.87109375 -0.8984375 C-26.83533203 -0.98480469 -25.79957031 -1.07117187 -24.73242188 -1.16015625 C-23.64509766 -1.23105469 -22.55777344 -1.30195313 -21.4375 -1.375 C-20.37724609 -1.46910156 -19.31699219 -1.56320312 -18.22460938 -1.66015625 C-11.69051793 -2.15192624 -6.3135579 -1.76223127 0 0 Z " fill="#A8704E" transform="translate(76,16)"/>
<path d="M0 0 C2.97 0 5.94 0 9 0 C9 9.24 9 18.48 9 28 C5.04 28.495 5.04 28.495 1 29 C0.34 29.66 -0.32 30.32 -1 31 C-1.99 30.67 -2.98 30.34 -4 30 C-2.4375 28 -2.4375 28 0 26 C2.31 26 4.62 26 7 26 C7 18.08 7 10.16 7 2 C4.36 2 1.72 2 -1 2 C-0.67 1.34 -0.34 0.68 0 0 Z " fill="#A16A4A" transform="translate(69,14)"/>
<path d="M0 0 C5.75 0.75 5.75 0.75 8 3 C8 3.99 8 4.98 8 6 C8.804375 6.2475 9.60875 6.495 10.4375 6.75 C11.283125 7.1625 12.12875 7.575 13 8 C13.33333333 9.33333333 13.66666667 10.66666667 14 12 C15.1446875 12.433125 15.1446875 12.433125 16.3125 12.875 C19.95350308 14.39914082 21.01845411 16.67383368 23 20 C23.33 20.33 23.66 20.66 24 21 C24.04063832 22.66617115 24.042721 24.33388095 24 26 C22 24 22 24 21 21 C20.01 20.67 19.02 20.34 18 20 C17.5359375 18.7625 17.5359375 18.7625 17.0625 17.5 C16.711875 16.675 16.36125 15.85 16 15 C15.34 14.835 14.68 14.67 14 14.5 C13.34 14.335 12.68 14.17 12 14 C11.33333333 12.33333333 10.66666667 10.66666667 10 9 C9.34 8.835 8.68 8.67 8 8.5 C7.34 8.335 6.68 8.17 6 8 C4.75 5.4375 4.75 5.4375 4 3 C2.35 3 0.7 3 -1 3 C-0.67 2.01 -0.34 1.02 0 0 Z " fill="#A8724F" transform="translate(18,42)"/>
<path d="M0 0 C0 0.66 0 1.32 0 2 C-0.99 2.33 -1.98 2.66 -3 3 C-1.89718873 4.27200971 -0.79269231 5.54255853 0.3125 6.8125 C0.92738281 7.52019531 1.54226562 8.22789063 2.17578125 8.95703125 C4.67730884 11.75852789 6.85701071 13.9046738 10 16 C8.24609375 16.71875 8.24609375 16.71875 6 17 C0.63184087 13.15797756 -3.37252204 7.44121694 -7 2 C-4 0 -4 0 0 0 Z " fill="#A27E4C" transform="translate(56,28)"/>
<path d="M0 0 C0.99 0.33 1.98 0.66 3 1 C-10.20046637 11.49710288 -10.20046637 11.49710288 -16 11 C-16 10.01 -16 9.02 -16 8 C-14.845 7.79375 -13.69 7.5875 -12.5 7.375 C-8.03857473 6.30520886 -5.19107045 4.1147811 -1.76171875 1.14453125 C-1.18035156 0.76683594 -0.59898438 0.38914062 0 0 Z " fill="#B37D58" transform="translate(49,28)"/>
<path d="M0 0 C0 0.33 0 0.66 0 1 C-9.405 1.495 -9.405 1.495 -19 2 C-18.67 1.01 -18.34 0.02 -18 -1 C-11.41276707 -2.04559253 -6.40766041 -1.83292414 0 0 Z " fill="#AF7856" transform="translate(76,16)"/>
</svg>
