<?xml version="1.0" encoding="UTF-8"?>
<svg version="1.1" xmlns="http://www.w3.org/2000/svg" width="256" height="256">
<path d="M0 0 C1.57648315 0.01244751 1.57648315 0.01244751 3.18481445 0.02514648 C21.30038546 0.41759699 37.18306364 7.74976225 50.1875 20.4375 C62.18133256 33.94714078 68.80214392 50.07152202 68.6875 68.125 C68.68250488 69.16938232 68.67750977 70.21376465 68.67236328 71.28979492 C68.29653444 88.12303899 61.77114708 104.06703915 50.1875 116.4375 C41.32083333 124.37083333 41.32083333 124.37083333 37.1875 126.4375 C36.7584742 128.53091518 36.7584742 128.53091518 36.625 130.9375 C36.28355489 135.34144511 36.28355489 135.34144511 35.1875 136.4375 C32.85452567 136.47842937 30.52044775 136.47991723 28.1875 136.4375 C28.1875 139.0775 28.1875 141.7175 28.1875 144.4375 C29.8890625 144.4065625 29.8890625 144.4065625 31.625 144.375 C35.1875 144.4375 35.1875 144.4375 36.1875 145.4375 C36.3125 148.4375 36.3125 148.4375 36.1875 151.4375 C35.1875 152.4375 35.1875 152.4375 31.625 152.5 C30.490625 152.479375 29.35625 152.45875 28.1875 152.4375 C28.19910156 153.50871094 28.21070313 154.57992187 28.22265625 155.68359375 C28.23203299 157.08072743 28.24113331 158.47786299 28.25 159.875 C28.25837891 160.58205078 28.26675781 161.28910156 28.27539062 162.01757812 C28.28403588 163.82443559 28.23970011 165.63137603 28.1875 167.4375 C27.1875 168.4375 27.1875 168.4375 23.625 168.5 C22.490625 168.479375 21.35625 168.45875 20.1875 168.4375 C20.125625 169.118125 20.06375 169.79875 20 170.5 C18.51133647 175.88209124 15.50477022 179.34444598 11.25 182.875 C5.66983428 185.67118808 -0.79007458 185.3299635 -6.8125 184.4375 C-13.30476964 181.84242612 -17.06654139 177.76514376 -19.8125 171.4375 C-19.8125 170.4475 -19.8125 169.4575 -19.8125 168.4375 C-21.5140625 168.4684375 -21.5140625 168.4684375 -23.25 168.5 C-26.8125 168.4375 -26.8125 168.4375 -27.8125 167.4375 C-27.88563567 164.90700598 -27.90497527 162.40445163 -27.875 159.875 C-27.87048828 159.16408203 -27.86597656 158.45316406 -27.86132812 157.72070312 C-27.84950864 155.95959987 -27.83157263 154.19853964 -27.8125 152.4375 C-29.5140625 152.4684375 -29.5140625 152.4684375 -31.25 152.5 C-34.8125 152.4375 -34.8125 152.4375 -35.8125 151.4375 C-35.9375 148.4375 -35.9375 148.4375 -35.8125 145.4375 C-34.8125 144.4375 -34.8125 144.4375 -31.25 144.375 C-30.115625 144.395625 -28.98125 144.41625 -27.8125 144.4375 C-27.8125 141.7975 -27.8125 139.1575 -27.8125 136.4375 C-29.5140625 136.4684375 -29.5140625 136.4684375 -31.25 136.5 C-34.8125 136.4375 -34.8125 136.4375 -35.8125 135.4375 C-35.83894557 134.04176172 -35.85863275 132.64589285 -35.875 131.25 C-36.16423963 128.26277102 -36.41379028 126.86515586 -38.48046875 124.6484375 C-40.53957602 123.14177364 -42.6537011 121.79631846 -44.8125 120.4375 C-58.26880688 110.55123372 -65.77036205 93.55823633 -68.28125 77.42578125 C-69.77638603 63.61276315 -67.60772552 51.01437241 -61.8125 38.4375 C-61.48121094 37.68210938 -61.14992188 36.92671875 -60.80859375 36.1484375 C-59.17070918 32.81784378 -58.23291377 31.58884896 -54.6875 30.3125 C-53.73875 30.02375 -52.79 29.735 -51.8125 29.4375 C-50.0201443 26.27953996 -49.42305662 22.99908028 -48.8125 19.4375 C-48.18601562 19.31632812 -47.55953125 19.19515625 -46.9140625 19.0703125 C-46.09679687 18.90273437 -45.27953125 18.73515625 -44.4375 18.5625 C-43.21933594 18.31886719 -43.21933594 18.31886719 -41.9765625 18.0703125 C-39.62576077 17.57091068 -39.62576077 17.57091068 -37.8125 15.4375 C-37.56371094 14.47199219 -37.31492187 13.50648437 -37.05859375 12.51171875 C-35.4201622 8.46956945 -33.83413701 7.93063248 -29.875 6.25 C-28.28365234 5.54810547 -28.28365234 5.54810547 -26.66015625 4.83203125 C-17.77455617 1.46030103 -9.50744828 -0.0975241 0 0 Z " fill="#010101" transform="translate(127.8125,59.5625)"/>
<path d="M0 0 C1.35242798 0.00930542 1.35242798 0.00930542 2.73217773 0.01879883 C3.41997314 0.0267749 4.10776855 0.03475098 4.81640625 0.04296875 C4.8414624 0.67388428 4.86651855 1.3047998 4.89233398 1.95483398 C5.00794762 4.796937 5.13082941 7.63867958 5.25390625 10.48046875 C5.29322266 11.47369141 5.33253906 12.46691406 5.37304688 13.49023438 C5.41494141 14.43447266 5.45683594 15.37871094 5.5 16.3515625 C5.55498657 17.66338501 5.55498657 17.66338501 5.61108398 19.00170898 C5.59821691 21.03570895 5.59821691 21.03570895 6.81640625 22.04296875 C9.88527242 22.32770891 12.95415922 22.49168674 16.03125 22.6640625 C18.81640625 23.04296875 18.81640625 23.04296875 20.81640625 25.04296875 C20.26085069 29.59852431 20.26085069 29.59852431 18.81640625 31.04296875 C15.71597852 31.36743212 12.61433375 31.55631316 9.50390625 31.76171875 C6.90043873 31.74904674 6.90043873 31.74904674 5.81640625 33.04296875 C5.65925971 34.67553633 5.56555211 36.31432213 5.5 37.953125 C5.4371582 39.4371582 5.4371582 39.4371582 5.37304688 40.95117188 C5.33373047 41.99208984 5.29441406 43.03300781 5.25390625 44.10546875 C5.18913086 45.67264648 5.18913086 45.67264648 5.12304688 47.27148438 C5.0165952 49.86180847 4.91596317 52.4523705 4.81640625 55.04296875 C-0.46359375 55.04296875 -5.74359375 55.04296875 -11.18359375 55.04296875 C-11.43109375 53.47546875 -11.67859375 51.90796875 -11.93359375 50.29296875 C-12.7742634 46.07769609 -13.5212757 43.59549345 -17.18359375 41.04296875 C-20.83647568 39.82534144 -23.34113511 39.65221024 -27.18359375 40.04296875 C-31.01443015 42.21136671 -32.6597407 43.40122832 -34 47.6015625 C-34.49928751 50.06308482 -34.85164489 52.5533523 -35.18359375 55.04296875 C-40.13359375 55.04296875 -45.08359375 55.04296875 -50.18359375 55.04296875 C-50.87906414 45.72366554 -48.51454795 38.05387633 -43.984375 29.87890625 C-42.89441562 27.83102169 -42.89441562 27.83102169 -43.74609375 24.54296875 C-44.18359375 21.04296875 -44.18359375 21.04296875 -42.80859375 19.04296875 C-42.27234375 18.38296875 -41.73609375 17.72296875 -41.18359375 17.04296875 C-40.45878291 13.39022406 -40.45878291 13.39022406 -40.18359375 10.04296875 C-39.5803125 9.92179687 -38.97703125 9.800625 -38.35546875 9.67578125 C-37.55625 9.50820312 -36.75703125 9.340625 -35.93359375 9.16796875 C-34.75023438 8.92433594 -34.75023438 8.92433594 -33.54296875 8.67578125 C-31.16934013 8.14615561 -31.16934013 8.14615561 -29.19921875 6.91015625 C-27.18359375 6.04296875 -27.18359375 6.04296875 -24.7734375 6.5625 C-21.35952269 7.19585071 -19.8155147 6.2760637 -16.74609375 4.73046875 C-15.29589844 4.034375 -15.29589844 4.034375 -13.81640625 3.32421875 C-12.94757813 2.90140625 -12.07875 2.47859375 -11.18359375 2.04296875 C-7.25283439 0.35835759 -4.22455096 -0.03768861 0 0 Z " fill="#F0F0F0" transform="translate(119.18359375,68.95703125)"/>
<path d="M0 0 C5.28 0 10.56 0 16 0 C16.20625 1.546875 16.4125 3.09375 16.625 4.6875 C17.34751695 8.24955908 17.98004254 10.63413913 20.6875 13.125 C24.58138451 15.32908557 26.59327761 15.6409778 31 15 C35.1719525 13.19847506 37.12650996 11.12167809 39 7 C39.33 4.69 39.66 2.38 40 0 C45.28 0 50.56 0 56 0 C55.40239303 16.73299527 46.74281573 30.86369672 35.02734375 42.30078125 C32.41848762 44.48739477 29.63957122 46.05452708 26.56640625 47.50390625 C24.19881372 49.45660035 24.19881372 49.45660035 24 56 C16.08 56 8.16 56 0 56 C-0.4375 45.0625 -0.4375 45.0625 -0.56811523 41.60961914 C-0.60622314 40.71879639 -0.64433105 39.82797363 -0.68359375 38.91015625 C-0.72025146 37.99371338 -0.75690918 37.07727051 -0.79467773 36.13305664 C-0.77003864 34.0179272 -0.77003864 34.0179272 -2 33 C-5.06886617 32.71525984 -8.13775297 32.55128201 -11.21484375 32.37890625 C-14 32 -14 32 -16 30 C-15.44444444 25.44444444 -15.44444444 25.44444444 -14 24 C-10.89957227 23.67553663 -7.7979275 23.48665559 -4.6875 23.28125 C-2.08403248 23.29392201 -2.08403248 23.29392201 -1 22 C-0.84285346 20.36743242 -0.74914586 18.72864662 -0.68359375 17.08984375 C-0.64169922 16.10048828 -0.59980469 15.11113281 -0.55664062 14.09179688 C-0.49766602 12.53041992 -0.49766602 12.53041992 -0.4375 10.9375 C-0.39431641 9.89271484 -0.35113281 8.84792969 -0.30664062 7.77148438 C-0.20018895 5.18116028 -0.09955692 2.59059825 0 0 Z " fill="#FDC742" transform="translate(132,132)"/>
<path d="M0 0 C4.55555556 0.55555556 4.55555556 0.55555556 6 2 C6.32446337 5.10042773 6.51334441 8.2020725 6.71875 11.3125 C6.70607799 13.91596752 6.70607799 13.91596752 8 15 C9.63256758 15.15714654 11.27135338 15.25085414 12.91015625 15.31640625 C13.89951172 15.35830078 14.88886719 15.40019531 15.90820312 15.44335938 C16.94912109 15.48267578 17.99003906 15.52199219 19.0625 15.5625 C20.10728516 15.60568359 21.15207031 15.64886719 22.22851562 15.69335938 C24.81883972 15.79981105 27.40940175 15.90044308 30 16 C30 21.28 30 26.56 30 32 C28.453125 32.20625 26.90625 32.4125 25.3125 32.625 C21.75044092 33.34751695 19.36586087 33.98004254 16.875 36.6875 C14.67091443 40.58138451 14.3590222 42.59327761 15 47 C16.65886774 50.64950902 18.4583573 53.08559854 22 55 C24.67960305 55.52974878 27.26862168 55.77238514 30 56 C30 61.28 30 66.56 30 72 C22.08 72 14.16 72 6 72 C5.67 69.69 5.34 67.38 5 65 C3.04025338 62.95812332 3.04025338 62.95812332 0.4375 61.5625 C-14.87398343 51.69606757 -22.14243645 37.34049 -26 20 C-26 18.68 -26 17.36 -26 16 C-25.3387915 15.97494385 -24.67758301 15.9498877 -23.99633789 15.92407227 C-21.01817695 15.80846898 -18.0403608 15.68558246 -15.0625 15.5625 C-13.50112305 15.50352539 -13.50112305 15.50352539 -11.90820312 15.44335938 C-10.42416992 15.38051758 -10.42416992 15.38051758 -8.91015625 15.31640625 C-7.99371338 15.27974854 -7.07727051 15.24309082 -6.13305664 15.20532227 C-4.0179272 15.22996136 -4.0179272 15.22996136 -3 14 C-2.71525984 10.93113383 -2.55128201 7.86224703 -2.37890625 4.78515625 C-2 2 -2 2 0 0 Z " fill="#42B1FD" transform="translate(94,116)"/>
<path d="M0 0 C15.84134246 0.81937978 30.11380121 8.12030414 40.9375 19.5625 C49.9852937 30.2553471 54.97849439 42.09194137 56 56 C55.00818726 56.03758423 55.00818726 56.03758423 53.99633789 56.07592773 C51.01817695 56.19153102 48.0403608 56.31441754 45.0625 56.4375 C44.02158203 56.47681641 42.98066406 56.51613281 41.90820312 56.55664062 C40.91884766 56.59853516 39.92949219 56.64042969 38.91015625 56.68359375 C37.53549194 56.73858032 37.53549194 56.73858032 36.13305664 56.79467773 C34.0179272 56.77003864 34.0179272 56.77003864 33 58 C32.71525984 61.06886617 32.55128201 64.13775297 32.37890625 67.21484375 C32 70 32 70 30 72 C25.44444444 71.44444444 25.44444444 71.44444444 24 70 C23.67553663 66.89957227 23.48665559 63.7979275 23.28125 60.6875 C23.29392201 58.08403248 23.29392201 58.08403248 22 57 C20.36743242 56.84285346 18.72864662 56.74914586 17.08984375 56.68359375 C16.10048828 56.64169922 15.11113281 56.59980469 14.09179688 56.55664062 C12.53041992 56.49766602 12.53041992 56.49766602 10.9375 56.4375 C9.37032227 56.37272461 9.37032227 56.37272461 7.77148438 56.30664062 C5.18116028 56.20018895 2.59059825 56.09955692 0 56 C0 50.72 0 45.44 0 40 C1.5675 39.7525 3.135 39.505 4.75 39.25 C8.96527266 38.40933035 11.4474753 37.66231805 14 34 C15.21762731 30.34711807 15.39075851 27.84245864 15 24 C12.83160204 20.1691636 11.64174043 18.52385305 7.44140625 17.18359375 C4.97988393 16.68430624 2.48961645 16.33194886 0 16 C0 10.72 0 5.44 0 0 Z " fill="#F15050" transform="translate(132,68)"/>
<path d="M0 0 C13.2 0 26.4 0 40 0 C40 2.64 40 5.28 40 8 C26.8 8 13.6 8 0 8 C0 5.36 0 2.72 0 0 Z " fill="#F45151" transform="translate(108,212)"/>
<path d="M0 0 C13.2 0 26.4 0 40 0 C40 2.64 40 5.28 40 8 C26.8 8 13.6 8 0 8 C0 5.36 0 2.72 0 0 Z " fill="#F45151" transform="translate(108,196)"/>
<path d="M0 0 C0.721875 0.37898437 1.44375 0.75796875 2.1875 1.1484375 C2.55078125 3.8984375 2.55078125 3.8984375 2.1875 7.1484375 C-0.26953125 9.2734375 -0.26953125 9.2734375 -3.625 11.1484375 C-4.21087891 11.48020996 -4.79675781 11.81198242 -5.40039062 12.15380859 C-6.60763422 12.83410667 -7.82013105 13.50516318 -9.03759766 14.16699219 C-10.7007874 15.0866652 -12.32688567 16.07253336 -13.94921875 17.0625 C-14.89410156 17.62710938 -15.83898438 18.19171875 -16.8125 18.7734375 C-17.658125 19.28132813 -18.50375 19.78921875 -19.375 20.3125 C-21.8125 21.1484375 -21.8125 21.1484375 -24.625 20.296875 C-25.346875 19.91789062 -26.06875 19.53890625 -26.8125 19.1484375 C-27.17578125 16.3984375 -27.17578125 16.3984375 -26.8125 13.1484375 C-24.35546875 11.0234375 -24.35546875 11.0234375 -21 9.1484375 C-20.41412109 8.81666504 -19.82824219 8.48489258 -19.22460938 8.14306641 C-18.01736578 7.46276833 -16.80486895 6.79171182 -15.58740234 6.12988281 C-13.9242126 5.2102098 -12.29811433 4.22434164 -10.67578125 3.234375 C-9.73089844 2.66976562 -8.78601563 2.10515625 -7.8125 1.5234375 C-6.966875 1.01554688 -6.12125 0.50765625 -5.25 -0.015625 C-2.8125 -0.8515625 -2.8125 -0.8515625 0 0 Z " fill="#000000" transform="translate(53.8125,167.8515625)"/>
<path d="M0 0 C5.78880493 1.18587051 10.78298745 4.58895776 15.8125 7.5625 C16.68326172 8.06974609 17.55402344 8.57699219 18.45117188 9.09960938 C24.83828712 12.83828712 24.83828712 12.83828712 26 14 C26.04080783 15.99958364 26.04254356 18.00045254 26 20 C21.68429091 22.21496087 21.68429091 22.21496087 18.65991211 21.26489258 C17.87366455 20.81267334 17.08741699 20.3604541 16.27734375 19.89453125 C15.40916016 19.40533203 14.54097656 18.91613281 13.64648438 18.41210938 C12.30553711 17.62030273 12.30553711 17.62030273 10.9375 16.8125 C10.03966797 16.30396484 9.14183594 15.79542969 8.21679688 15.27148438 C-0.14471948 10.49081071 -0.14471948 10.49081071 -3 8 C-3.4375 4.9375 -3.4375 4.9375 -3 2 C-2.01 1.34 -1.02 0.68 0 0 Z " fill="#000000" transform="translate(30,67)"/>
<path d="M0 0 C2.75 -0.36328125 2.75 -0.36328125 6 0 C8.125 2.45703125 8.125 2.45703125 10 5.8125 C10.33177246 6.39837891 10.66354492 6.98425781 11.00537109 7.58789062 C11.68566917 8.79513422 12.35672568 10.00763105 13.01855469 11.22509766 C13.9382277 12.8882874 14.92409586 14.51438567 15.9140625 16.13671875 C16.47867188 17.08160156 17.04328125 18.02648437 17.625 19 C18.13289063 19.845625 18.64078125 20.69125 19.1640625 21.5625 C20 24 20 24 19.1484375 26.8125 C18.76945312 27.534375 18.39046875 28.25625 18 29 C15.25 29.36328125 15.25 29.36328125 12 29 C9.875 26.54296875 9.875 26.54296875 8 23.1875 C7.66822754 22.60162109 7.33645508 22.01574219 6.99462891 21.41210938 C6.31433083 20.20486578 5.64327432 18.99236895 4.98144531 17.77490234 C4.0617723 16.1117126 3.07590414 14.48561433 2.0859375 12.86328125 C1.52132812 11.91839844 0.95671875 10.97351562 0.375 10 C-0.13289063 9.154375 -0.64078125 8.30875 -1.1640625 7.4375 C-2 5 -2 5 -1.1484375 2.1875 C-0.76945312 1.465625 -0.39046875 0.74375 0 0 Z " fill="#000000" transform="translate(69,27)"/>
<path d="M0 0 C5.78880493 1.18587051 10.78298745 4.58895776 15.8125 7.5625 C16.68326172 8.06974609 17.55402344 8.57699219 18.45117188 9.09960938 C24.83828712 12.83828712 24.83828712 12.83828712 26 14 C26.125 17 26.125 17 26 20 C25 21 25 21 22.2590332 21.22436523 C18.69450013 20.97896813 16.90824088 20.209805 13.85546875 18.41015625 C12.93185547 17.87326172 12.00824219 17.33636719 11.05664062 16.78320312 C10.10982422 16.21537109 9.16300781 15.64753906 8.1875 15.0625 C7.22134766 14.49853516 6.25519531 13.93457031 5.25976562 13.35351562 C-1.77355708 9.22644292 -1.77355708 9.22644292 -3 8 C-3.25 5.0625 -3.25 5.0625 -3 2 C-2.01 1.34 -1.02 0.68 0 0 Z " fill="#000000" transform="translate(203,167)"/>
<path d="M0 0 C0.721875 0.37898438 1.44375 0.75796875 2.1875 1.1484375 C2.75 3.7734375 2.75 3.7734375 2.1875 7.1484375 C-0.46631347 9.70172773 -3.6126684 11.35952066 -6.8125 13.1484375 C-7.8953125 13.78652344 -8.978125 14.42460938 -10.09375 15.08203125 C-19.97295864 20.712727 -19.97295864 20.712727 -25.8125 20.1484375 C-26.8125 19.1484375 -26.8125 19.1484375 -27.23828125 16.3359375 C-26.8125 13.1484375 -26.8125 13.1484375 -24.35546875 11.0234375 C-23.24816406 10.4046875 -22.14085937 9.7859375 -21 9.1484375 C-20.41412109 8.81666504 -19.82824219 8.48489258 -19.22460938 8.14306641 C-18.01736578 7.46276833 -16.80486895 6.79171182 -15.58740234 6.12988281 C-13.9242126 5.2102098 -12.29811433 4.22434164 -10.67578125 3.234375 C-9.73089844 2.66976562 -8.78601563 2.10515625 -7.8125 1.5234375 C-6.966875 1.01554687 -6.12125 0.50765625 -5.25 -0.015625 C-2.8125 -0.8515625 -2.8125 -0.8515625 0 0 Z " fill="#000000" transform="translate(226.8125,67.8515625)"/>
<path d="M0 0 C0.928125 0.0825 1.85625 0.165 2.8125 0.25 C3.97583008 2.40722656 3.97583008 2.40722656 4.8125 5.25 C3.86206055 7.91308594 3.86206055 7.91308594 2.19921875 10.734375 C1.61076172 11.75144531 1.02230469 12.76851562 0.41601562 13.81640625 C-0.21626953 14.86699219 -0.84855469 15.91757812 -1.5 17 C-2.43102539 18.59908203 -2.43102539 18.59908203 -3.38085938 20.23046875 C-7.91641465 27.97891465 -7.91641465 27.97891465 -9.1875 29.25 C-12.1875 29.375 -12.1875 29.375 -15.1875 29.25 C-16.1875 28.25 -16.1875 28.25 -16.55078125 25.7578125 C-16.03950576 20.82098038 -13.85741091 17.35787312 -11.375 13.125 C-10.92318359 12.32707031 -10.47136719 11.52914062 -10.00585938 10.70703125 C-4.06607251 0.31890765 -4.06607251 0.31890765 0 0 Z " fill="#000000" transform="translate(184.1875,26.75)"/>
<path d="M0 0 C0.66209473 -0.00095673 1.32418945 -0.00191345 2.00634766 -0.00289917 C3.40852961 -0.00358076 4.8107147 -0.00172792 6.21289062 0.00244141 C8.36595713 0.00779004 10.51881502 0.0024958 12.671875 -0.00390625 C14.03125046 -0.00324546 15.3906258 -0.00196429 16.75 0 C18.61785156 0.00169189 18.61785156 0.00169189 20.5234375 0.00341797 C23.375 0.1328125 23.375 0.1328125 24.375 1.1328125 C24.5 4.1328125 24.5 4.1328125 24.375 7.1328125 C22.49180732 9.01600518 19.25569863 8.26335535 16.75 8.265625 C16.08790527 8.26658173 15.42581055 8.26753845 14.74365234 8.26852417 C13.34147039 8.26920576 11.9392853 8.26735292 10.53710938 8.26318359 C8.38404287 8.25783496 6.23118498 8.2631292 4.078125 8.26953125 C2.71874954 8.26887046 1.3593742 8.26758929 0 8.265625 C-1.24523437 8.26449707 -2.49046875 8.26336914 -3.7734375 8.26220703 C-6.625 8.1328125 -6.625 8.1328125 -7.625 7.1328125 C-7.75 4.1328125 -7.75 4.1328125 -7.625 1.1328125 C-5.74180732 -0.75038018 -2.50569863 0.00226965 0 0 Z " fill="#000000" transform="translate(219.625,123.8671875)"/>
<path d="M0 0 C0.66209473 -0.00095673 1.32418945 -0.00191345 2.00634766 -0.00289917 C3.40852961 -0.00358076 4.8107147 -0.00172792 6.21289062 0.00244141 C8.36595713 0.00779004 10.51881502 0.0024958 12.671875 -0.00390625 C14.03125046 -0.00324546 15.3906258 -0.00196429 16.75 0 C18.61785156 0.00169189 18.61785156 0.00169189 20.5234375 0.00341797 C23.375 0.1328125 23.375 0.1328125 24.375 1.1328125 C24.5 4.1328125 24.5 4.1328125 24.375 7.1328125 C22.49180732 9.01600518 19.25569863 8.26335535 16.75 8.265625 C16.08790527 8.26658173 15.42581055 8.26753845 14.74365234 8.26852417 C13.34147039 8.26920576 11.9392853 8.26735292 10.53710938 8.26318359 C8.38404287 8.25783496 6.23118498 8.2631292 4.078125 8.26953125 C2.71874954 8.26887046 1.3593742 8.26758929 0 8.265625 C-1.24523437 8.26449707 -2.49046875 8.26336914 -3.7734375 8.26220703 C-6.625 8.1328125 -6.625 8.1328125 -7.625 7.1328125 C-7.75 4.1328125 -7.75 4.1328125 -7.625 1.1328125 C-5.74180732 -0.75038018 -2.50569863 0.00226965 0 0 Z " fill="#000000" transform="translate(19.625,123.8671875)"/>
<path d="M0 0 C3 0.125 3 0.125 4 1.125 C4.10012401 3.33150656 4.1308118 5.54122386 4.1328125 7.75 C4.13376923 8.41209473 4.13472595 9.07418945 4.13571167 9.75634766 C4.13639326 11.15852961 4.13454042 12.5607147 4.13037109 13.96289062 C4.12502246 16.11595713 4.1303167 18.26881502 4.13671875 20.421875 C4.13605796 21.78125046 4.13477679 23.1406258 4.1328125 24.5 C4.13168457 25.74523437 4.13055664 26.99046875 4.12939453 28.2734375 C4 31.125 4 31.125 3 32.125 C0 32.25 0 32.25 -3 32.125 C-4.88319268 30.24180732 -4.13054285 27.00569863 -4.1328125 24.5 C-4.13376923 23.83790527 -4.13472595 23.17581055 -4.13571167 22.49365234 C-4.13639326 21.09147039 -4.13454042 19.6892853 -4.13037109 18.28710938 C-4.12502246 16.13404287 -4.1303167 13.98118498 -4.13671875 11.828125 C-4.13605796 10.46874954 -4.13477679 9.1093742 -4.1328125 7.75 C-4.13168457 6.50476563 -4.13055664 5.25953125 -4.12939453 3.9765625 C-3.95167153 0.05995001 -3.93938636 0.1641411 0 0 Z " fill="#000000" transform="translate(128,11.875)"/>
<path d="M0 0 C7.26 0 14.52 0 22 0 C19.93495594 4.13008812 18.87603795 5.64067255 15 8 C10.81884155 8.67438039 8.54429448 8.95571432 4.9296875 6.71875 C3.12543783 5.22860048 1.49381426 3.80191345 0 2 C0 1.34 0 0.68 0 0 Z " fill="#EBEBEB" transform="translate(117,228)"/>
<path d="M0 0 C1.1446875 0.3403125 1.1446875 0.3403125 2.3125 0.6875 C3 3 3 3 3.3125 5.6875 C2.1875 7.5625 2.1875 7.5625 0.3125 8.6875 C-2.375 8.375 -2.375 8.375 -4.6875 7.6875 C-5.375 5.375 -5.375 5.375 -5.6875 2.6875 C-4.0011022 -0.12316299 -3.27764429 -0.38112143 0 0 Z " fill="#0C0C0C" transform="translate(83.6875,78.3125)"/>
</svg>
