<?xml version="1.0" encoding="UTF-8"?>
<svg version="1.1" xmlns="http://www.w3.org/2000/svg" width="100" height="100">
<path d="M0 0 C8.62509922 7.45398483 12.58345508 15.35972139 15.8203125 26.125 C17.52212367 31.60209343 19.93200835 36.23276918 22.91796875 41.13671875 C24.33969113 44.28843341 24.46507228 46.38848462 24.125 49.8125 C21.08273626 55.46241837 21.08273626 55.46241837 18.0625 56.56640625 C15.78398879 57.72055626 15.78398879 57.72055626 15.359375 60.82421875 C15.19953125 62.03722656 15.0396875 63.25023438 14.875 64.5 C13.70924725 70.67088686 12.3384539 73.94082472 7.265625 77.6796875 C4.11904639 79.34484771 1.67227647 79.73859841 -1.875 79.8125 C-1.9575 80.740625 -2.04 81.66875 -2.125 82.625 C-2.875 85.8125 -2.875 85.8125 -4.33642578 87.47802734 C-8.20885304 89.51367722 -11.92587569 89.31977293 -16.2421875 89.3515625 C-17.15453156 89.36391937 -18.06687561 89.37627625 -19.00686646 89.38900757 C-20.9350138 89.40855705 -22.86326071 89.41980296 -24.79150391 89.42333984 C-27.73379864 89.43742246 -30.67184101 89.50475918 -33.61328125 89.57421875 C-35.4895645 89.58661847 -37.36587201 89.59583743 -39.2421875 89.6015625 C-40.1173703 89.62828033 -40.9925531 89.65499817 -41.89425659 89.68252563 C-45.4699933 89.64296881 -47.89948058 89.56814487 -50.78485107 87.33311462 C-54.68136168 83.01346542 -55.517237 80.08117454 -55.375 74.125 C-55.45950933 66.10775812 -57.84671791 60.75121589 -61.875 53.8125 C-62.67123729 52.15781937 -63.44475348 50.49187173 -64.1875 48.8125 C-64.49300781 48.131875 -64.79851562 47.45125 -65.11328125 46.75 C-68.44274643 38.28120651 -67.95326701 27.32213236 -64.875 18.8125 C-59.78851559 7.18385966 -52.70857116 -0.46554188 -40.875 -5.1875 C-27.66386337 -9.88976897 -11.42950294 -8.3018349 0 0 Z " fill="#FCC4A2" transform="translate(72.875,9.1875)"/>
<path d="M0 0 C8.62509922 7.45398483 12.58345508 15.35972139 15.8203125 26.125 C17.52212367 31.60209343 19.93200835 36.23276918 22.91796875 41.13671875 C24.33969113 44.28843341 24.46507228 46.38848462 24.125 49.8125 C21.08273626 55.46241837 21.08273626 55.46241837 18.0625 56.56640625 C15.78398879 57.72055626 15.78398879 57.72055626 15.359375 60.82421875 C15.19953125 62.03722656 15.0396875 63.25023438 14.875 64.5 C13.70924725 70.67088686 12.3384539 73.94082472 7.265625 77.6796875 C4.11904639 79.34484771 1.67227647 79.73859841 -1.875 79.8125 C-1.9575 80.740625 -2.04 81.66875 -2.125 82.625 C-2.875 85.8125 -2.875 85.8125 -4.33642578 87.47802734 C-8.20885304 89.51367722 -11.92587569 89.31977293 -16.2421875 89.3515625 C-17.15453156 89.36391937 -18.06687561 89.37627625 -19.00686646 89.38900757 C-20.9350138 89.40855705 -22.86326071 89.41980296 -24.79150391 89.42333984 C-27.73379864 89.43742246 -30.67184101 89.50475918 -33.61328125 89.57421875 C-35.4895645 89.58661847 -37.36587201 89.59583743 -39.2421875 89.6015625 C-40.1173703 89.62828033 -40.9925531 89.65499817 -41.89425659 89.68252563 C-45.4699933 89.64296881 -47.89948058 89.56814487 -50.78485107 87.33311462 C-54.68136168 83.01346542 -55.517237 80.08117454 -55.375 74.125 C-55.45950933 66.10775812 -57.84671791 60.75121589 -61.875 53.8125 C-62.67123729 52.15781937 -63.44475348 50.49187173 -64.1875 48.8125 C-64.49300781 48.131875 -64.79851562 47.45125 -65.11328125 46.75 C-68.44274643 38.28120651 -67.95326701 27.32213236 -64.875 18.8125 C-59.78851559 7.18385966 -52.70857116 -0.46554188 -40.875 -5.1875 C-27.66386337 -9.88976897 -11.42950294 -8.3018349 0 0 Z M-43.875 5.8125 C-44.5659375 6.27527344 -45.256875 6.73804688 -45.96875 7.21484375 C-52.29244859 12.04020331 -56.90774628 18.80558318 -58.18847656 26.75927734 C-59.28695742 38.25468636 -56.58060991 47.38913797 -50.0234375 56.828125 C-45.85628684 64.02850778 -46.48613588 70.25659771 -45.875 78.8125 C-34.985 78.8125 -24.095 78.8125 -12.875 78.8125 C-12.545 75.5125 -12.215 72.2125 -11.875 68.8125 C-11.05515625 68.87050781 -10.2353125 68.92851563 -9.390625 68.98828125 C-7.77414063 69.05595703 -7.77414063 69.05595703 -6.125 69.125 C-5.05765625 69.18300781 -3.9903125 69.24101563 -2.890625 69.30078125 C0.25844402 69.06695012 0.25844402 69.06695012 2.46484375 66.73828125 C4.4498541 63.23999243 4.68717788 60.68416845 4.9375 56.6875 C5.65773101 50.25253887 5.65773101 50.25253887 7.80078125 48.234375 C9.75 47.4375 9.75 47.4375 13.125 46.8125 C12.89649956 42.47099156 11.58478337 39.79262923 9.25 36.25 C6.72112472 32.274345 5.55380532 28.9382435 4.6875 24.3125 C3.04897037 16.40845648 0.03873255 10.91735301 -6.33203125 5.86328125 C-16.68678565 -0.34957139 -33.68221007 -1.42178946 -43.875 5.8125 Z " fill="#E3E2E4" transform="translate(72.875,9.1875)"/>
<path d="M0 0 C8.58 0 17.16 0 26 0 C26 11.55 26 23.1 26 35 C27.65 35.33 29.3 35.66 31 36 C31.625 38.375 31.625 38.375 32 41 C31.34 41.66 30.68 42.32 30 43 C28.68 43 27.36 43 26 43 C26 45.97 26 48.94 26 52 C17.42 52 8.84 52 0 52 C0 49.03 0 46.06 0 43 C1.65 42.34 3.3 41.68 5 41 C4.67 39.35 4.34 37.7 4 36 C2.68 35.67 1.36 35.34 0 35 C0 29.06 0 23.12 0 17 C-1.65 16.67 -3.3 16.34 -5 16 C-5.625 13.625 -5.625 13.625 -6 11 C-5.34 10.34 -4.68 9.68 -4 9 C-2.68 9 -1.36 9 0 9 C0 6.03 0 3.06 0 0 Z " fill="#DD4F2C" transform="translate(34,18)"/>
<path d="M0 0 C9.5025017 5.98912464 12.16582122 15.17887353 14.88671875 25.55859375 C16.26356317 29.81473386 18.36467086 33.15198629 20.8046875 36.8671875 C22.36922483 39.65881293 22.49526989 41.86329068 22 45 C20.88625 45.391875 19.7725 45.78375 18.625 46.1875 C16.57965115 47.19623881 16.57965115 47.19623881 15 49 C14.18214386 52.28447546 13.86376749 55.48607701 13.5234375 58.8515625 C12.78350955 63.3021739 11.3037353 65.02663823 8 68 C5.47524538 69.26237731 3.68799534 69.09856404 0.875 69.0625 C-0.49011719 69.04896484 -0.49011719 69.04896484 -1.8828125 69.03515625 C-2.93082031 69.01775391 -2.93082031 69.01775391 -4 69 C-3.98839844 69.63808594 -3.97679687 70.27617188 -3.96484375 70.93359375 C-3.95582031 71.75988281 -3.94679687 72.58617188 -3.9375 73.4375 C-3.92589844 74.26121094 -3.91429687 75.08492188 -3.90234375 75.93359375 C-4 78 -4 78 -5 79 C-7.8116338 79.08861992 -10.59858255 79.11522355 -13.41015625 79.09765625 C-14.25219101 79.0962413 -15.09422577 79.09482635 -15.96177673 79.09336853 C-18.66205335 79.08775263 -21.36224828 79.07519748 -24.0625 79.0625 C-25.88867068 79.05748705 -27.71484266 79.05292379 -29.54101562 79.04882812 C-34.02737542 79.03777804 -38.51367384 79.02050279 -43 79 C-43.0402832 77.84749756 -43.08056641 76.69499512 -43.12207031 75.50756836 C-43.19011464 73.97246496 -43.25883548 72.43739145 -43.328125 70.90234375 C-43.35277832 70.14546265 -43.37743164 69.38858154 -43.40283203 68.60876465 C-43.79946384 60.44475996 -47.1598837 54.44411981 -51.5078125 47.640625 C-56.48100867 39.17198238 -56.12827743 29.65868646 -54.5234375 20.1875 C-52.10528298 11.79679515 -46.03116618 4.9614492 -39 0 C-38.41347656 -0.41507813 -37.82695313 -0.83015625 -37.22265625 -1.2578125 C-26.90788254 -7.09944672 -10.04036471 -5.65431065 0 0 Z M-38 3 C-38.6909375 3.46277344 -39.381875 3.92554688 -40.09375 4.40234375 C-46.41744859 9.22770331 -51.03274628 15.99308318 -52.31347656 23.94677734 C-53.41195742 35.44218636 -50.70560991 44.57663797 -44.1484375 54.015625 C-39.98128684 61.21600778 -40.61113588 67.44409771 -40 76 C-29.11 76 -18.22 76 -7 76 C-6.67 72.7 -6.34 69.4 -6 66 C-5.18015625 66.05800781 -4.3603125 66.11601563 -3.515625 66.17578125 C-1.89914063 66.24345703 -1.89914063 66.24345703 -0.25 66.3125 C0.81734375 66.37050781 1.8846875 66.42851563 2.984375 66.48828125 C6.13344402 66.25445012 6.13344402 66.25445012 8.33984375 63.92578125 C10.3248541 60.42749243 10.56217788 57.87166845 10.8125 53.875 C11.53273101 47.44003887 11.53273101 47.44003887 13.67578125 45.421875 C15.625 44.625 15.625 44.625 19 44 C18.77149956 39.65849156 17.45978337 36.98012923 15.125 33.4375 C12.59612472 29.461845 11.42880532 26.1257435 10.5625 21.5 C8.92397037 13.59595648 5.91373255 8.10485301 -0.45703125 3.05078125 C-10.81178565 -3.16207139 -27.80721007 -4.23428946 -38 3 Z " fill="#514876" transform="translate(67,12)"/>
<path d="M0 0 C8.58 0 17.16 0 26 0 C26 8.58 26 17.16 26 26 C23.03 26 20.06 26 17 26 C16.34 24.35 15.68 22.7 15 21 C13.35 21.33 11.7 21.66 10 22 C9.67 23.32 9.34 24.64 9 26 C6.03 26 3.06 26 0 26 C0 23.03 0 20.06 0 17 C-1.65 16.67 -3.3 16.34 -5 16 C-5.625 13.625 -5.625 13.625 -6 11 C-5.34 10.34 -4.68 9.68 -4 9 C-2.68 9 -1.36 9 0 9 C0 6.03 0 3.06 0 0 Z " fill="#739F4D" transform="translate(34,18)"/>
<path d="M0 0 C3.41973609 2.91928691 3.77858131 5.36097847 4.1328125 9.7109375 C3.9209769 13.36198645 2.40019813 15.340321 0 18 C-1.02287109 18.36738281 -1.02287109 18.36738281 -2.06640625 18.7421875 C-4.33942497 19.90981455 -4.33942497 19.90981455 -4.765625 23.01171875 C-4.92546875 24.22472656 -5.0853125 25.43773438 -5.25 26.6875 C-6.41575275 32.85838686 -7.7865461 36.12832472 -12.859375 39.8671875 C-16.00595361 41.53234771 -18.45272353 41.92609841 -22 42 C-22.0825 42.928125 -22.165 43.85625 -22.25 44.8125 C-23 48 -23 48 -24.45263672 49.67431641 C-28.3758605 51.71601711 -32.14823596 51.42812463 -36.5078125 51.3984375 C-37.42964325 51.40130768 -38.351474 51.40417786 -39.30123901 51.40713501 C-41.24624243 51.40917373 -43.19126644 51.40365729 -45.13623047 51.39111328 C-48.12123088 51.37502032 -51.10488475 51.39098724 -54.08984375 51.41015625 C-55.97916967 51.4081745 -57.86849474 51.40433225 -59.7578125 51.3984375 C-61.10155441 51.40754654 -61.10155441 51.40754654 -62.47244263 51.4168396 C-63.71415726 51.40265488 -63.71415726 51.40265488 -64.98095703 51.38818359 C-66.0753862 51.38460342 -66.0753862 51.38460342 -67.19192505 51.38095093 C-69 51 -69 51 -71 48 C-69.74340576 48.00523682 -68.48681152 48.01047363 -67.19213867 48.01586914 C-62.53491934 48.03395417 -57.87770312 48.04544487 -53.22045898 48.05493164 C-51.20385211 48.05996382 -49.1872489 48.06679014 -47.1706543 48.07543945 C-44.27391661 48.08755373 -41.37722712 48.09323943 -38.48046875 48.09765625 C-37.57725388 48.10281754 -36.674039 48.10797882 -35.74345398 48.11329651 C-34.90280899 48.11337204 -34.062164 48.11344757 -33.19604492 48.11352539 C-32.08684944 48.11685631 -32.08684944 48.11685631 -30.95524597 48.12025452 C-28.78368342 48.07089116 -28.78368342 48.07089116 -26 47 C-25.67 44.69 -25.34 42.38 -25 40 C-24.40832031 39.84144531 -23.81664062 39.68289062 -23.20703125 39.51953125 C-17.92979463 37.96132598 -14.42346907 36.53106201 -11 32 C-9.04178874 28.09180525 -8.05140312 24.61683744 -7.6875 20.25 C-7 17 -7 17 -4 14.6875 C-3.01 14.130625 -2.02 13.57375 -1 13 C0.32229189 10.35541621 0.09677194 8.32238699 0.0625 5.375 C0.05347656 4.37210938 0.04445313 3.36921875 0.03515625 2.3359375 C0.02355469 1.56507812 0.01195313 0.79421875 0 0 Z " fill="#070707" transform="translate(93,47)"/>
<path d="M0 0 C0.66 0.33 1.32 0.66 2 1 C1.319375 1.66 0.63875 2.32 -0.0625 3 C-3.019479 5.92337696 -5.63082833 9.10531333 -8.25390625 12.328125 C-10.17780937 14.17025147 -11.39943607 14.61304519 -14 15 C-12.67441682 11.0847466 -11.07706617 8.692157 -8.125 5.8125 C-7.44695313 5.13832031 -6.76890625 4.46414062 -6.0703125 3.76953125 C-4.08981135 2.07676329 -2.43657744 0.91244218 0 0 Z " fill="#4A4273" transform="translate(30,11)"/>
<path d="M0 0 C0 0.33 0 0.66 0 1 C3.3 1.33 6.6 1.66 10 2 C10 2.33 10 2.66 10 3 C9.07058594 3.04898437 8.14117187 3.09796875 7.18359375 3.1484375 C-2.07660933 3.69677146 -2.07660933 3.69677146 -11 6 C-10.8125 4.125 -10.8125 4.125 -10 2 C-6.62176024 0.12320013 -3.82367701 -0.21849583 0 0 Z " fill="#5D517A" transform="translate(42,8)"/>
<path d="M0 0 C0.33 0.99 0.66 1.98 1 3 C-0.78346291 6.03188696 -1.59575156 6.86525052 -5 8 C-3.375 2.25 -3.375 2.25 0 0 Z " fill="#564D7A" transform="translate(18,24)"/>
</svg>
