<?xml version="1.0" encoding="UTF-8"?>
<svg version="1.1" xmlns="http://www.w3.org/2000/svg" width="96" height="96">
<path d="M0 0 C14.52 0 29.04 0 44 0 C48 9 48 9 48 11 C50.64 11 53.28 11 56 11 C56 15.95 56 20.9 56 26 C55.01 26 54.02 26 53 26 C52.93941406 26.68707031 52.87882812 27.37414062 52.81640625 28.08203125 C52.69072266 29.43361328 52.69072266 29.43361328 52.5625 30.8125 C52.44068359 32.15248047 52.44068359 32.15248047 52.31640625 33.51953125 C52 36 52 36 51 39 C52.32 39 53.64 39 55 39 C54.39752513 47.00022602 53.0020576 54.76276936 51.4375 62.625 C51.08655273 64.41744141 51.08655273 64.41744141 50.72851562 66.24609375 C50.15643102 69.16489275 49.58017925 72.0828012 49 75 C47.68 75 46.36 75 45 75 C44.86722656 76.09699219 44.73445313 77.19398437 44.59765625 78.32421875 C44.41937015 79.77865801 44.2409792 81.23308442 44.0625 82.6875 C43.93198242 83.7693457 43.93198242 83.7693457 43.79882812 84.87304688 C43.71181641 85.57880859 43.62480469 86.28457031 43.53515625 87.01171875 C43.456604 87.65584717 43.37805176 88.29997559 43.29711914 88.96362305 C42.95278287 91.3236139 42.46773284 93.66133579 42 96 C28.8 96 15.6 96 2 96 C-1 80 -1 80 -1 75 C-2.32 75 -3.64 75 -5 75 C-8.00868744 63.12480183 -9.97462359 51.07334771 -12 39 C-10.02 38.505 -10.02 38.505 -8 38 C-8.33 34.04 -8.66 30.08 -9 26 C-9.99 26 -10.98 26 -12 26 C-12 21.05 -12 16.1 -12 11 C-8.535 10.505 -8.535 10.505 -5 10 C-3.35 6.7 -1.7 3.4 0 0 Z " fill="#2B2A26" transform="translate(26,0)"/>
<path d="M0 0 C18.48 0 36.96 0 56 0 C54.49525276 9.02848346 52.79505494 18.02472532 51 27 C35.49 27 19.98 27 4 27 C0 4 0 4 0 0 Z " fill="#F7F7F7" transform="translate(20,43)"/>
<path d="M0 0 C17.16 0 34.32 0 52 0 C51.67 4.29 51.34 8.58 51 13 C34.5 13 18 13 1 13 C0.67 8.71 0.34 4.42 0 0 Z " fill="#FEEA3A" transform="translate(22,26)"/>
<path d="M0 0 C12.21 0 24.42 0 37 0 C36 13 36 13 35 18 C24.44 18 13.88 18 3 18 C2.01 12.06 1.02 6.12 0 0 Z " fill="#FCE83A" transform="translate(29,74)"/>
<path d="M0 0 C19.8 0 39.6 0 60 0 C60 1.98 60 3.96 60 6 C40.2 6 20.4 6 0 6 C0 4.02 0 2.04 0 0 Z " fill="#EDEDED" transform="translate(18,15)"/>
<path d="M0 0 C1.60279192 0.00015914 3.20558896 0.00585476 4.80834961 0.01586914 C5.65038437 0.01728409 6.49241913 0.01869904 7.35997009 0.02015686 C10.06024671 0.02577276 12.76044163 0.03832791 15.46069336 0.05102539 C17.28686404 0.05603834 19.11303602 0.06060161 20.93920898 0.06469727 C25.42556878 0.07574735 29.9118672 0.0930226 34.39819336 0.11352539 C35.05819336 2.42352539 35.71819336 4.73352539 36.39819336 7.11352539 C22.53819336 7.11352539 8.67819336 7.11352539 -5.60180664 7.11352539 C-4.43954073 0.13992994 -4.43954073 0.13992994 0 0 Z " fill="#F8F8F8" transform="translate(32.601806640625,3.886474609375)"/>
</svg>
