<svg width="512" height="512" version="1.1" xmlns="http://www.w3.org/2000/svg" desc="Created with imagetracer.js version 1.2.6" ><path fill="rgb(0,0,0)" stroke="rgb(0,0,0)" stroke-width="1" opacity="0" d="M 0 0 L 512 0 L 512 512 L 0 512 L 0 0 Z M 254 104 L 243 107 L 128 174 Q 122 179 120 187 L 120 327 L 124 336 L 136 345 L 176 368 L 178 368 L 242 406 L 250 409 L 261 409 L 271 405 L 384 339 L 390 329 L 391 324 L 391 190 L 386 178 L 381 172 L 371 166 L 272 109 Q 265 104 254 104 Z " /><path fill="rgb(131,49,152)" stroke="rgb(131,49,152)" stroke-width="1" opacity="0.9882352941176471" d="M 253.5 104 Q 263.5 104 269.5 108 L 375.5 169 L 386 177.5 L 391 189.5 L 391 323.5 Q 389 335.5 380.5 341 L 270.5 405 L 260.5 409 L 249.5 409 L 241.5 406 L 210.5 387 L 142.5 349 L 129.5 341 L 124 335.5 L 120 326.5 L 120 186.5 L 126 175 L 235.5 111 L 247.5 105 Q 252.2 106.3 253.5 104 Z M 246 167 L 222 173 Q 205 180 194 191 Q 180 204 172 222 L 167 238 L 166 252 L 165 253 L 166 272 L 171 290 Q 177 304 186 315 Q 199 331 221 340 L 237 345 L 252 346 L 253 347 L 269 346 L 279 344 Q 297 339 311 328 Q 324 317 333 302 L 295 279 L 288 288 Q 279 297 264 301 L 248 301 L 243 300 L 228 292 Q 215 283 211 265 Q 209 252 212 245 Q 215 233 223 226 L 239 215 L 251 212 L 266 213 L 284 222 L 294 234 L 296 234 L 333 212 L 324 199 Q 311 183 292 174 L 273 168 Q 267 170 266 167 L 246 167 Z M 335 227 L 333 238 L 333 239 L 325 239 L 325 246 L 332 246 L 330 255 L 330 259 L 322 259 L 322 266 L 328 266 L 326 278 L 334 278 L 336 270 L 337 266 L 348 266 L 346 276 L 346 278 L 354 278 L 356 268 L 357 266 L 364 266 L 364 259 L 357 259 L 359 250 L 359 246 L 367 246 L 367 239 L 361 239 L 362 233 L 362 227 L 355 227 L 353 238 L 352 239 L 341 239 L 343 229 L 343 227 L 335 227 Z " /><path fill="rgb(131,49,152)" stroke="rgb(131,49,152)" stroke-width="1" opacity="0.9882352941176471" d="M 339 246 L 352 246.5 L 350 259 L 337 258.5 L 339 246 Z " /><path fill="rgb(253,253,253)" stroke="rgb(253,253,253)" stroke-width="1" opacity="0.9921568627450981" d="M 245.5 167 L 253 167.5 L 245.5 168 L 245.5 167 Z " /><path fill="rgb(253,253,253)" stroke="rgb(253,253,253)" stroke-width="1" opacity="0.9921568627450981" d="M 259.5 167 L 266 167.5 L 259.5 168 L 259.5 167 Z " /><path fill="rgb(253,253,253)" stroke="rgb(253,253,253)" stroke-width="1" opacity="0.9921568627450981" d="M 238.5 168 L 242 168.5 L 238.5 169 L 238.5 168 Z " /><path fill="rgb(253,253,253)" stroke="rgb(253,253,253)" stroke-width="1" opacity="0.9921568627450981" d="M 269.5 168 L 273 168.5 L 269.5 169 L 269.5 168 Z " /><path fill="rgb(253,253,253)" stroke="rgb(253,253,253)" stroke-width="1" opacity="0.9921568627450981" d="M 290.5 174 L 294 175.5 L 292.5 176 L 290.5 174 Z " /><path fill="rgb(253,253,253)" stroke="rgb(253,253,253)" stroke-width="1" opacity="0.9921568627450981" d="M 295.5 176 L 299 178.5 L 297.5 178 L 295.5 176 Z " /><path fill="rgb(253,253,253)" stroke="rgb(253,253,253)" stroke-width="1" opacity="0.9921568627450981" d="M 209.5 179 L 208.5 181 L 209.5 179 Z " /><path fill="rgb(253,253,253)" stroke="rgb(253,253,253)" stroke-width="1" opacity="0.9921568627450981" d="M 302.5 180 L 303.5 182 L 302.5 180 Z " /><path fill="rgb(253,253,253)" stroke="rgb(253,253,253)" stroke-width="1" opacity="0.9921568627450981" d="M 305.5 182 L 306.5 184 L 305.5 182 Z " /><path fill="rgb(253,253,253)" stroke="rgb(253,253,253)" stroke-width="1" opacity="0.9921568627450981" d="M 203.5 183 L 202.5 185 L 203.5 183 Z " /><path fill="rgb(253,253,253)" stroke="rgb(253,253,253)" stroke-width="1" opacity="0.9921568627450981" d="M 308.5 184 L 310.5 187 L 308.5 184 Z " /><path fill="rgb(253,253,253)" stroke="rgb(253,253,253)" stroke-width="1" opacity="0.9921568627450981" d="M 200.5 185 L 197.5 189 L 200.5 185 Z " /><path fill="rgb(253,253,253)" stroke="rgb(253,253,253)" stroke-width="1" opacity="0.9921568627450981" d="M 313.5 188 L 323.5 199 L 313.5 188 Z " /><path fill="rgb(253,253,253)" stroke="rgb(253,253,253)" stroke-width="1" opacity="0.9921568627450981" d="M 193.5 191 L 190.5 195 L 193.5 191 Z " /><path fill="rgb(253,253,253)" stroke="rgb(253,253,253)" stroke-width="1" opacity="0.9921568627450981" d="M 186.5 199 L 184.5 202 L 186.5 199 Z " /><path fill="rgb(253,253,253)" stroke="rgb(253,253,253)" stroke-width="1" opacity="0.9921568627450981" d="M 325.5 201 L 327.5 204 L 325.5 201 Z " /><path fill="rgb(253,253,253)" stroke="rgb(253,253,253)" stroke-width="1" opacity="0.9921568627450981" d="M 183.5 203 L 181.5 206 L 183.5 203 Z " /><path fill="rgb(253,253,253)" stroke="rgb(253,253,253)" stroke-width="1" opacity="0.9921568627450981" d="M 328.5 205 L 329.5 207 L 328.5 205 Z " /><path fill="rgb(253,253,253)" stroke="rgb(253,253,253)" stroke-width="1" opacity="0.9921568627450981" d="M 180.5 207 L 179.5 209 L 180.5 207 Z " /><path fill="rgb(253,253,253)" stroke="rgb(253,253,253)" stroke-width="1" opacity="0.9921568627450981" d="M 330.5 208 L 331.5 210 L 330.5 208 Z " /><path fill="rgb(253,253,253)" stroke="rgb(253,253,253)" stroke-width="1" opacity="0.9921568627450981" d="M 332.5 211 L 331.5 213 L 332.5 211 Z " /><path fill="rgb(253,253,253)" stroke="rgb(253,253,253)" stroke-width="1" opacity="0.9921568627450981" d="M 177.5 212 L 176.5 214 L 177.5 212 Z " /><path fill="rgb(253,253,253)" stroke="rgb(253,253,253)" stroke-width="1" opacity="0.9921568627450981" d="M 247.5 212 L 250 212.5 L 247.5 213 L 247.5 212 Z " /><path fill="rgb(253,253,253)" stroke="rgb(253,253,253)" stroke-width="1" opacity="0.9921568627450981" d="M 259.5 212 L 263 212.5 L 259.5 213 L 259.5 212 Z " /><path fill="rgb(253,253,253)" stroke="rgb(253,253,253)" stroke-width="1" opacity="0.9921568627450981" d="M 242.5 213 L 245 213.5 L 242.5 214 L 242.5 213 Z " /><path fill="rgb(253,253,253)" stroke="rgb(253,253,253)" stroke-width="1" opacity="0.9921568627450981" d="M 329.5 213 L 328.5 215 L 326.5 216 L 327.5 214 L 329.5 213 Z " /><path fill="rgb(253,253,253)" stroke="rgb(253,253,253)" stroke-width="1" opacity="0.9921568627450981" d="M 322.5 217 L 321.5 219 L 322.5 217 Z " /><path fill="rgb(253,253,253)" stroke="rgb(253,253,253)" stroke-width="1" opacity="0.9921568627450981" d="M 231.5 218 L 230.5 220 L 231.5 218 Z " /><path fill="rgb(253,253,253)" stroke="rgb(253,253,253)" stroke-width="1" opacity="0.9921568627450981" d="M 173.5 219 L 174 220.5 L 172.5 223 L 172 221.5 L 173.5 219 Z " /><path fill="rgb(253,253,253)" stroke="rgb(253,253,253)" stroke-width="1" opacity="0.9921568627450981" d="M 228.5 220 L 225.5 224 L 228.5 220 Z " /><path fill="rgb(253,253,253)" stroke="rgb(253,253,253)" stroke-width="1" opacity="0.9921568627450981" d="M 281.5 220 L 282.5 222 L 281.5 220 Z " /><path fill="rgb(253,253,253)" stroke="rgb(253,253,253)" stroke-width="1" opacity="0.9921568627450981" d="M 315.5 221 L 314.5 223 L 315.5 221 Z " /><path fill="rgb(253,253,253)" stroke="rgb(253,253,253)" stroke-width="1" opacity="0.9921568627450981" d="M 285.5 223 L 288.5 227 L 285.5 223 Z " /><path fill="rgb(253,253,253)" stroke="rgb(253,253,253)" stroke-width="1" opacity="0.9921568627450981" d="M 308.5 225 L 307.5 227 L 308.5 225 Z " /><path fill="rgb(253,253,253)" stroke="rgb(253,253,253)" stroke-width="1" opacity="0.9921568627450981" d="M 222.5 226 L 219.5 230 L 222.5 226 Z " /><path fill="rgb(253,253,253)" stroke="rgb(253,253,253)" stroke-width="1" opacity="0.9921568627450981" d="M 335.5 227 L 342.5 227 L 343 228.5 L 341.5 228 L 335.5 228 L 335.5 227 Z " /><path fill="rgb(253,253,253)" stroke="rgb(253,253,253)" stroke-width="1" opacity="0.9921568627450981" d="M 355.5 227 L 362 227.5 L 355.5 228 L 355.5 227 Z " /><path fill="rgb(253,253,253)" stroke="rgb(253,253,253)" stroke-width="1" opacity="0.9921568627450981" d="M 290.5 229 L 291.5 231 L 290.5 229 Z " /><path fill="rgb(253,253,253)" stroke="rgb(253,253,253)" stroke-width="1" opacity="0.9921568627450981" d="M 301.5 229 L 300.5 231 L 301.5 229 Z " /><path fill="rgb(253,253,253)" stroke="rgb(253,253,253)" stroke-width="1" opacity="0.9921568627450981" d="M 354.5 229 L 355 231.5 L 354 231.5 L 354.5 229 Z " /><path fill="rgb(253,253,253)" stroke="rgb(253,253,253)" stroke-width="1" opacity="0.9921568627450981" d="M 361.5 230 L 362 232.5 L 361 232.5 L 361.5 230 Z " /><path fill="rgb(253,253,253)" stroke="rgb(253,253,253)" stroke-width="1" opacity="0.9921568627450981" d="M 334.5 231 L 335 233.5 L 334 233.5 L 334.5 231 Z " /><path fill="rgb(253,253,253)" stroke="rgb(253,253,253)" stroke-width="1" opacity="0.9921568627450981" d="M 292.5 232 L 295.5 233 L 297 232.5 L 293.5 234 L 292.5 232 Z " /><path fill="rgb(253,253,253)" stroke="rgb(253,253,253)" stroke-width="1" opacity="0.9921568627450981" d="M 341.5 232 L 342 234.5 L 341 234.5 L 341.5 232 Z " /><path fill="rgb(253,253,253)" stroke="rgb(253,253,253)" stroke-width="1" opacity="0.9921568627450981" d="M 216.5 234 L 216 235.5 L 214.5 239 L 214 237.5 L 216.5 234 Z " /><path fill="rgb(253,253,253)" stroke="rgb(253,253,253)" stroke-width="1" opacity="0.9921568627450981" d="M 353.5 234 L 354 236.5 L 353 236.5 L 353.5 234 Z " /><path fill="rgb(253,253,253)" stroke="rgb(253,253,253)" stroke-width="1" opacity="0.9921568627450981" d="M 360.5 236 L 361 238.5 L 360 238.5 L 360.5 236 Z " /><path fill="rgb(253,253,253)" stroke="rgb(253,253,253)" stroke-width="1" opacity="0.9921568627450981" d="M 167.5 237 L 168 239.5 L 167 239.5 L 167.5 237 Z " /><path fill="rgb(253,253,253)" stroke="rgb(253,253,253)" stroke-width="1" opacity="0.9921568627450981" d="M 166.5 242 L 167 245.5 L 166 245.5 L 166.5 242 Z " /><path fill="rgb(253,253,253)" stroke="rgb(253,253,253)" stroke-width="1" opacity="0.9921568627450981" d="M 339.5 245 L 352 245.5 L 339.5 246 L 339.5 245 Z " /><path fill="rgb(253,253,253)" stroke="rgb(253,253,253)" stroke-width="1" opacity="0.9921568627450981" d="M 351.5 247 L 352 249.5 L 351 249.5 L 351.5 247 Z " /><path fill="rgb(253,253,253)" stroke="rgb(253,253,253)" stroke-width="1" opacity="0.9921568627450981" d="M 358.5 247 L 359 249.5 L 358 249.5 L 358.5 247 Z " /><path fill="rgb(253,253,253)" stroke="rgb(253,253,253)" stroke-width="1" opacity="0.9921568627450981" d="M 331.5 248 L 332 250.5 L 331 250.5 L 331.5 248 Z " /><path fill="rgb(253,253,253)" stroke="rgb(253,253,253)" stroke-width="1" opacity="0.9921568627450981" d="M 338.5 249 L 339 251.5 L 338 251.5 L 338.5 249 Z " /><path fill="rgb(253,253,253)" stroke="rgb(253,253,253)" stroke-width="1" opacity="0.9921568627450981" d="M 210.5 251 L 211 262.5 L 210 262.5 L 210.5 251 Z " /><path fill="rgb(253,253,253)" stroke="rgb(253,253,253)" stroke-width="1" opacity="0.9921568627450981" d="M 165.5 252 L 166 262.5 L 165 262.5 L 165.5 252 Z " /><path fill="rgb(253,253,253)" stroke="rgb(253,253,253)" stroke-width="1" opacity="0.9921568627450981" d="M 350.5 253 L 351 255.5 L 350 255.5 L 350.5 253 Z " /><path fill="rgb(253,253,253)" stroke="rgb(253,253,253)" stroke-width="1" opacity="0.9921568627450981" d="M 357.5 253 L 358 255.5 L 357 255.5 L 357.5 253 Z " /><path fill="rgb(253,253,253)" stroke="rgb(253,253,253)" stroke-width="1" opacity="0.9921568627450981" d="M 330.5 254 L 331 256.5 L 330 256.5 L 330.5 254 Z " /><path fill="rgb(253,253,253)" stroke="rgb(253,253,253)" stroke-width="1" opacity="0.9921568627450981" d="M 337.5 255 L 338 257.5 L 337 257.5 L 337.5 255 Z " /><path fill="rgb(253,253,253)" stroke="rgb(253,253,253)" stroke-width="1" opacity="0.9921568627450981" d="M 211.5 265 L 212 267.5 L 211 267.5 L 211.5 265 Z " /><path fill="rgb(253,253,253)" stroke="rgb(253,253,253)" stroke-width="1" opacity="0.9921568627450981" d="M 328.5 266 L 329 268.5 L 328 268.5 L 328.5 266 Z " /><path fill="rgb(253,253,253)" stroke="rgb(253,253,253)" stroke-width="1" opacity="0.9921568627450981" d="M 335.5 267 L 336 269.5 L 335 269.5 L 335.5 267 Z " /><path fill="rgb(253,253,253)" stroke="rgb(253,253,253)" stroke-width="1" opacity="0.9921568627450981" d="M 166.5 268 L 167 271.5 L 166 271.5 L 166.5 268 Z " /><path fill="rgb(253,253,253)" stroke="rgb(253,253,253)" stroke-width="1" opacity="0.9921568627450981" d="M 347.5 269 L 348 271.5 L 347 271.5 L 347.5 269 Z " /><path fill="rgb(253,253,253)" stroke="rgb(253,253,253)" stroke-width="1" opacity="0.9921568627450981" d="M 327.5 271 L 328 274.5 L 327 274.5 L 327.5 271 Z " /><path fill="rgb(253,253,253)" stroke="rgb(253,253,253)" stroke-width="1" opacity="0.9921568627450981" d="M 354.5 271 L 355 273.5 L 354 273.5 L 354.5 271 Z " /><path fill="rgb(253,253,253)" stroke="rgb(253,253,253)" stroke-width="1" opacity="0.9921568627450981" d="M 334.5 273 L 335 275.5 L 334 275.5 L 334.5 273 Z " /><path fill="rgb(253,253,253)" stroke="rgb(253,253,253)" stroke-width="1" opacity="0.9921568627450981" d="M 167.5 274 L 168 276.5 L 167 276.5 L 167.5 274 Z " /><path fill="rgb(253,253,253)" stroke="rgb(253,253,253)" stroke-width="1" opacity="0.9921568627450981" d="M 346.5 275 L 347 277.5 L 346 277.5 L 346.5 275 Z " /><path fill="rgb(253,253,253)" stroke="rgb(253,253,253)" stroke-width="1" opacity="0.9921568627450981" d="M 168.5 278 L 169 280.5 L 168 280.5 L 168.5 278 Z " /><path fill="rgb(253,253,253)" stroke="rgb(253,253,253)" stroke-width="1" opacity="0.9921568627450981" d="M 295.5 279 L 296.5 281 L 295.5 279 Z " /><path fill="rgb(253,253,253)" stroke="rgb(253,253,253)" stroke-width="1" opacity="0.9921568627450981" d="M 302.5 283 L 303.5 285 L 302.5 283 Z " /><path fill="rgb(253,253,253)" stroke="rgb(253,253,253)" stroke-width="1" opacity="0.9921568627450981" d="M 290.5 284 L 288.5 287 L 290.5 284 Z " /><path fill="rgb(253,253,253)" stroke="rgb(253,253,253)" stroke-width="1" opacity="0.9921568627450981" d="M 221.5 286 L 225.5 291 L 221.5 286 Z " /><path fill="rgb(253,253,253)" stroke="rgb(253,253,253)" stroke-width="1" opacity="0.9921568627450981" d="M 309.5 287 L 310.5 289 L 309.5 287 Z " /><path fill="rgb(253,253,253)" stroke="rgb(253,253,253)" stroke-width="1" opacity="0.9921568627450981" d="M 285.5 289 L 282.5 293 L 285.5 289 Z " /><path fill="rgb(253,253,253)" stroke="rgb(253,253,253)" stroke-width="1" opacity="0.9921568627450981" d="M 314.5 290 L 315.5 292 L 314.5 290 Z " /><path fill="rgb(253,253,253)" stroke="rgb(253,253,253)" stroke-width="1" opacity="0.9921568627450981" d="M 228.5 292 L 229.5 294 L 228.5 292 Z " /><path fill="rgb(253,253,253)" stroke="rgb(253,253,253)" stroke-width="1" opacity="0.9921568627450981" d="M 280.5 293 L 279.5 295 L 280.5 293 Z " /><path fill="rgb(253,253,253)" stroke="rgb(253,253,253)" stroke-width="1" opacity="0.9921568627450981" d="M 321.5 294 L 322.5 296 L 321.5 294 Z " /><path fill="rgb(253,253,253)" stroke="rgb(253,253,253)" stroke-width="1" opacity="0.9921568627450981" d="M 174.5 295 L 176 297.5 L 174 296.5 L 174.5 295 Z " /><path fill="rgb(253,253,253)" stroke="rgb(253,253,253)" stroke-width="1" opacity="0.9921568627450981" d="M 328.5 298 L 329.5 300 L 328.5 298 Z " /><path fill="rgb(253,253,253)" stroke="rgb(253,253,253)" stroke-width="1" opacity="0.9921568627450981" d="M 244.5 300 L 247 300.5 L 244.5 301 L 244.5 300 Z " /><path fill="rgb(253,253,253)" stroke="rgb(253,253,253)" stroke-width="1" opacity="0.9921568627450981" d="M 250.5 301 L 261 301.5 L 250.5 302 L 250.5 301 Z " /><path fill="rgb(253,253,253)" stroke="rgb(253,253,253)" stroke-width="1" opacity="0.9921568627450981" d="M 332.5 302 L 331.5 304 L 332.5 302 Z " /><path fill="rgb(253,253,253)" stroke="rgb(253,253,253)" stroke-width="1" opacity="0.9921568627450981" d="M 178.5 303 L 179.5 305 L 178.5 303 Z " /><path fill="rgb(253,253,253)" stroke="rgb(253,253,253)" stroke-width="1" opacity="0.9921568627450981" d="M 330.5 305 L 329.5 307 L 330.5 305 Z " /><path fill="rgb(253,253,253)" stroke="rgb(253,253,253)" stroke-width="1" opacity="0.9921568627450981" d="M 180.5 306 L 181.5 308 L 180.5 306 Z " /><path fill="rgb(253,253,253)" stroke="rgb(253,253,253)" stroke-width="1" opacity="0.9921568627450981" d="M 328.5 308 L 327.5 310 L 328.5 308 Z " /><path fill="rgb(253,253,253)" stroke="rgb(253,253,253)" stroke-width="1" opacity="0.9921568627450981" d="M 182.5 309 L 184.5 312 L 182.5 309 Z " /><path fill="rgb(253,253,253)" stroke="rgb(253,253,253)" stroke-width="1" opacity="0.9921568627450981" d="M 325.5 312 L 323.5 315 L 325.5 312 Z " /><path fill="rgb(253,253,253)" stroke="rgb(253,253,253)" stroke-width="1" opacity="0.9921568627450981" d="M 186.5 314 L 197.5 326 L 186.5 314 Z " /><path fill="rgb(253,253,253)" stroke="rgb(253,253,253)" stroke-width="1" opacity="0.9921568627450981" d="M 313.5 324 L 310.5 328 L 313.5 324 Z " /><path fill="rgb(253,253,253)" stroke="rgb(253,253,253)" stroke-width="1" opacity="0.9921568627450981" d="M 200.5 327 L 201.5 329 L 200.5 327 Z " /><path fill="rgb(253,253,253)" stroke="rgb(253,253,253)" stroke-width="1" opacity="0.9921568627450981" d="M 308.5 328 L 306.5 331 L 308.5 328 Z " /><path fill="rgb(253,253,253)" stroke="rgb(253,253,253)" stroke-width="1" opacity="0.9921568627450981" d="M 204.5 330 L 205.5 332 L 204.5 330 Z " /><path fill="rgb(253,253,253)" stroke="rgb(253,253,253)" stroke-width="1" opacity="0.9921568627450981" d="M 207.5 332 L 208.5 334 L 207.5 332 Z " /><path fill="rgb(253,253,253)" stroke="rgb(253,253,253)" stroke-width="1" opacity="0.9921568627450981" d="M 297.5 335 L 296.5 337 L 297.5 335 Z " /><path fill="rgb(253,253,253)" stroke="rgb(253,253,253)" stroke-width="1" opacity="0.9921568627450981" d="M 272.5 344 L 275 344.5 L 272.5 345 L 272.5 344 Z " /><path fill="rgb(253,253,253)" stroke="rgb(253,253,253)" stroke-width="1" opacity="0.9921568627450981" d="M 241.5 345 L 245 345.5 L 241.5 346 L 241.5 345 Z " /><path fill="rgb(253,253,253)" stroke="rgb(253,253,253)" stroke-width="1" opacity="0.9921568627450981" d="M 266.5 345 L 269 345.5 L 266.5 346 L 266.5 345 Z " /><path fill="rgb(253,253,253)" stroke="rgb(253,253,253)" stroke-width="1" opacity="0.9921568627450981" d="M 252.5 346 L 259 346.5 L 252.5 347 L 252.5 346 Z " /><path fill="rgb(254,254,254)" stroke="rgb(254,254,254)" stroke-width="1" opacity="1" d="M 253.5 167 L 274.5 169 L 294.5 176 Q 312.7 185.3 325 200.5 L 332 211.5 L 299.5 231 L 293.5 233 L 285.5 223 Q 278 216.5 267.5 213 L 262.5 212 L 247.5 212 Q 228.5 216 219 229.5 L 212 242.5 L 210 251.5 L 210 262.5 Q 213.5 281 225.5 291 Q 233.2 297.8 244.5 301 L 260.5 302 Q 280.7 298.2 291 284.5 L 294.5 279 L 333 301.5 Q 325.5 314.5 314.5 324 Q 301.6 335.6 283.5 342 L 265.5 346 L 245.5 346 L 230.5 343 L 209.5 334 Q 195.2 325.3 185 312.5 Q 174.4 299.6 169 281.5 L 166 267.5 L 166 246.5 L 169 231.5 L 176 214.5 Q 184.1 199.6 196.5 189 Q 206.8 179.8 220.5 174 L 236.5 169 L 252.5 168 L 253.5 167 Z " /><path fill="rgb(254,254,254)" stroke="rgb(254,254,254)" stroke-width="1" opacity="1" d="M 335 228 L 342 228 L 342 231.5 L 341 232.5 L 341 239 L 352.5 239 L 353 237.5 L 355 228 L 361.5 228 L 362 229.5 L 360 239 L 367 239 L 367 246 L 359.5 246 L 358 247.5 L 357 259 L 364 259 L 364 266 L 355 266 L 355 270.5 Q 352.8 271.8 354 276.5 L 352.5 278 Q 344.3 280.8 347 272.5 L 348 266 L 336.5 266 L 335 267.5 L 334 278 L 327 278 L 327 275.5 L 329 266 L 322 266 L 322 259 L 329.5 259 L 330 257.5 L 332 246 L 325 246 L 325 239 L 334 239 L 334 234.5 L 335 228 Z M 339 245 L 337 256 L 338 259 L 350 259 L 352 250 L 352 245 L 339 245 Z " /></svg>