<?xml version="1.0" encoding="UTF-8"?>
<svg version="1.1" xmlns="http://www.w3.org/2000/svg" width="128" height="128">
<path d="M0 0 C12.80710971 9.22386215 22.24533924 22.38207297 24.91796875 38.1015625 C26.46283413 55.49735515 24.33607634 70.63627185 13.91796875 85.1015625 C4.08303651 96.81350862 -9.00973025 105.94065275 -24.59472656 107.32470703 C-42.58480739 108.34548892 -57.86954039 105.51708462 -72.03125 93.625 C-84.12349445 82.17613554 -91.01310505 68.70273503 -91.55273438 52.00292969 C-91.7298383 34.46373803 -87.15238512 20.2357583 -74.89453125 7.2890625 C-54.29333665 -12.21602488 -24.02048463 -14.91364304 0 0 Z " fill="#BADBF6" transform="translate(97.08203125,14.8984375)"/>
<path d="M0 0 C1.88314659 -0.01925285 1.88314659 -0.01925285 3.80433655 -0.03889465 C5.18783169 -0.04706555 6.57133129 -0.05450861 7.95483398 -0.0612793 C8.99760655 -0.06739259 8.99760655 -0.06739259 10.06144524 -0.07362938 C13.74701518 -0.09452134 17.43254764 -0.10880457 21.11816406 -0.11816406 C24.91220939 -0.12918357 28.70566088 -0.16352148 32.49949741 -0.20333576 C35.42590867 -0.22959647 38.35218118 -0.23786462 41.27869987 -0.24144554 C42.67604481 -0.24629396 44.07338427 -0.25785795 45.47061348 -0.27648354 C54.4795558 -0.38902683 61.19159038 -0.18785454 68.19702148 5.9934082 C68.65206055 6.56961914 69.10709961 7.14583008 69.57592773 7.73950195 C70.04901367 8.31829102 70.52209961 8.89708008 71.00952148 9.4934082 C73.8118927 13.67272307 73.69418455 18.34739696 73.13842773 23.17700195 C71.0192315 29.97053958 67.03167377 34.12792509 60.76342773 37.42700195 C57.23139911 38.43615299 53.79327178 38.8053229 50.13842773 39.17700195 C50.02885742 39.80348633 49.91928711 40.4299707 49.80639648 41.07543945 C49.6478418 41.89270508 49.48928711 42.7099707 49.32592773 43.55200195 C49.17510742 44.36411133 49.02428711 45.1762207 48.86889648 46.01293945 C48.13842773 48.17700195 48.13842773 48.17700195 45.13842773 50.17700195 C42.93762207 50.44442749 42.93762207 50.44442749 40.34741211 50.4675293 C39.37630493 50.480289 38.40519775 50.49304871 37.40466309 50.50619507 C36.35774292 50.50842072 35.31082275 50.51064636 34.23217773 50.51293945 C33.1559314 50.51959625 32.07968506 50.52625305 30.9708252 50.53311157 C28.6945161 50.54324015 26.41817731 50.54792853 24.1418457 50.54760742 C20.6519307 50.55198502 17.16327551 50.58831603 13.67358398 50.6262207 C11.4639529 50.6320878 9.2543158 50.63605791 7.04467773 50.63793945 C5.47429749 50.659496 5.47429749 50.659496 3.87219238 50.68148804 C2.90108521 50.67533478 1.92997803 50.66918152 0.92944336 50.6628418 C0.07467407 50.66569183 -0.78009521 50.66854187 -1.6607666 50.67147827 C-3.86157227 50.17700195 -3.86157227 50.17700195 -5.63873291 48.4322052 C-7.0072524 45.90833354 -7.23121829 44.45950177 -7.21801758 41.60791016 C-7.22101868 40.71050613 -7.22401978 39.81310211 -7.22711182 38.88850403 C-7.21476501 37.92796616 -7.20241821 36.96742828 -7.18969727 35.9777832 C-7.1878241 34.98699265 -7.18595093 33.99620209 -7.184021 32.97538757 C-7.17730611 30.88492458 -7.16340281 28.79447403 -7.14282227 26.70410156 C-7.11158853 23.49117463 -7.10184325 20.27873772 -7.09594727 17.06567383 C-7.08678052 15.03637092 -7.0764058 13.00707304 -7.06469727 10.9777832 C-7.06044739 10.01117264 -7.05619751 9.04456207 -7.05181885 8.04866028 C-7.0422113 7.16071274 -7.03260376 6.2727652 -7.02270508 5.35791016 C-7.01587708 4.57277542 -7.00904907 3.78764069 -7.00201416 2.97871399 C-6.68676027 -1.06563991 -3.34188268 0.02962192 0 0 Z " fill="#FEFDFE" transform="translate(32.861572265625,37.822998046875)"/>
<path d="M0 0 C12.80710971 9.22386215 22.24533924 22.38207297 24.91796875 38.1015625 C26.46283413 55.49735515 24.33607634 70.63627185 13.91796875 85.1015625 C4.08303651 96.81350862 -9.00973025 105.94065275 -24.59472656 107.32470703 C-42.58480739 108.34548892 -57.86954039 105.51708462 -72.03125 93.625 C-84.12349445 82.17613554 -91.01310505 68.70273503 -91.55273438 52.00292969 C-91.7298383 34.46373803 -87.15238512 20.2357583 -74.89453125 7.2890625 C-54.29333665 -12.21602488 -24.02048463 -14.91364304 0 0 Z M-75.08203125 14.1015625 C-84.80211725 27.02257338 -89.10519052 41.0779973 -87.08203125 57.1015625 C-85.33463124 66.32775165 -82.05239482 74.77830866 -76.08203125 82.1015625 C-75.55867188 82.78476563 -75.0353125 83.46796875 -74.49609375 84.171875 C-66.40749226 94.15920923 -54.74104091 100.74858673 -42.08203125 103.1015625 C-26.78557702 104.28080457 -12.31081856 102.07121641 -0.08203125 92.1015625 C0.60117188 91.57820313 1.284375 91.05484375 1.98828125 90.515625 C12.42996859 82.05904932 18.38478143 70.21145974 20.91796875 57.1015625 C21.92014895 40.32087082 18.71942474 25.65005008 7.60546875 12.6640625 C-0.80269125 4.02942008 -9.67288536 -0.42109077 -21.08203125 -3.8984375 C-21.71496094 -4.10082031 -22.34789063 -4.30320312 -23 -4.51171875 C-42.88217457 -8.20465549 -61.61384341 -0.5770017 -75.08203125 14.1015625 Z " fill="#8D6EA0" transform="translate(97.08203125,14.8984375)"/>
<path d="M0 0 C1.27522522 -0.00938095 2.55045044 -0.0187619 3.86431885 -0.02842712 C5.25427925 -0.01794428 6.64423321 -0.00657466 8.03417969 0.00561523 C9.46661452 0.00546015 10.89904976 0.00396964 12.33148193 0.00120544 C15.33429512 -0.00017856 18.33663073 0.01237263 21.33935547 0.03515625 C25.17028721 0.06343891 29.00041954 0.06083183 32.83140945 0.04806614 C35.79132795 0.04107457 38.75106507 0.04893931 41.71096039 0.06132317 C43.12221326 0.06581127 44.53348579 0.06619778 45.9447403 0.06225777 C55.38758058 0.04824336 63.94673991 0.12246615 71.31933594 6.86889648 C76.01602006 12.39907666 78.61742763 18.70873026 78.18261719 25.98608398 C76.93291472 32.58287406 74.04740861 37.8272602 68.76855469 42.00170898 C63.93300634 45.2193483 59.56861727 46.84656561 53.70605469 46.50170898 C53.62355469 47.57420898 53.54105469 48.64670898 53.45605469 49.75170898 C52.64323878 53.8157885 51.93510584 55.03243457 48.70605469 57.50170898 C45.83581799 58.45845455 43.94872472 58.64917242 40.96264648 58.69458008 C40.00122238 58.71064301 39.03979828 58.72670593 38.04924011 58.74325562 C33.65759059 58.78780237 29.26609023 58.82876226 24.87426758 58.85180664 C22.55906119 58.86837051 20.24390602 58.89566591 17.92895508 58.93383789 C14.58745855 58.98863605 11.24715893 59.01048503 7.90527344 59.02514648 C6.35811897 59.05915054 6.35811897 59.05915054 4.77970886 59.09384155 C-3.24870819 59.070274 -3.24870819 59.070274 -6.93139648 56.15649414 C-9.96481489 52.74785595 -10.41667634 50.40383914 -10.47094727 46.00195312 C-10.4837825 45.09413589 -10.49661774 44.18631866 -10.50984192 43.25099182 C-10.51722885 42.27283005 -10.52461578 41.29466827 -10.53222656 40.28686523 C-10.54029831 39.2795787 -10.54837006 38.27229218 -10.5566864 37.23448181 C-10.5705165 35.1036043 -10.58124346 32.97270474 -10.58911133 30.84179688 C-10.60636062 27.58022389 -10.65026091 24.31965509 -10.69433594 21.05834961 C-10.70445985 18.98869561 -10.71297689 16.91903299 -10.71972656 14.84936523 C-10.73723465 13.87322769 -10.75474274 12.89709015 -10.77278137 11.89137268 C-10.7698558 10.98040329 -10.76693024 10.0694339 -10.76391602 9.13085938 C-10.76978226 8.33160538 -10.7756485 7.53235138 -10.7816925 6.70887756 C-9.48173067 0.82625032 -5.40438734 0.0008006 0 0 Z M-6.29394531 5.50170898 C-6.40232991 6.89216184 -6.44294969 8.28799923 -6.45507812 9.68261719 C-6.46468567 10.57056473 -6.47429321 11.45851227 -6.48419189 12.37336731 C-6.48844177 13.33997787 -6.49269165 14.30658844 -6.49707031 15.30249023 C-6.50277039 16.29041061 -6.50847046 17.27833099 -6.51434326 18.29618835 C-6.5238102 20.39194665 -6.53033393 22.48771995 -6.53417969 24.58349609 C-6.54387281 27.79022269 -6.5748753 30.99630522 -6.60644531 34.20288086 C-6.61297626 36.23608017 -6.61822637 38.26928407 -6.62207031 40.30249023 C-6.63441711 41.26302811 -6.64676392 42.22356598 -6.65948486 43.21321106 C-6.65648376 44.11061508 -6.65348267 45.0080191 -6.65039062 45.93261719 C-6.65403625 46.7201387 -6.65768188 47.50766022 -6.66143799 48.31904602 C-6.18394351 51.15504678 -5.34102048 52.48850465 -3.29394531 54.50170898 C-1.05611926 55.10526333 -1.05611926 55.10526333 1.48120117 55.01928711 C2.44908066 55.03189575 3.41696014 55.04450439 4.41416931 55.05749512 C5.45795242 55.04939819 6.50173553 55.04130127 7.57714844 55.03295898 C9.18796043 55.03869934 9.18796043 55.03869934 10.83131409 55.04455566 C13.10345394 55.04727888 15.37562493 55.03988921 17.64770508 55.02319336 C21.12685099 55.00181164 24.60392679 55.02297172 28.08300781 55.04858398 C30.28939258 55.04594037 32.49577607 55.04081471 34.70214844 55.03295898 C36.26478676 55.04510437 36.26478676 55.04510437 37.85899353 55.05749512 C43.44229178 55.06068126 43.44229178 55.06068126 48.34692383 52.70288086 C50.19648792 49.70743091 50.43892601 46.97438185 50.70605469 43.50170898 C51.43050781 43.40374023 52.15496094 43.30577148 52.90136719 43.20483398 C60.14709169 42.08416193 64.85402231 40.59141073 69.95605469 35.06420898 C73.61287356 29.70958136 74.58732403 24.91294348 73.70605469 18.50170898 C71.58097823 12.44041136 67.14049658 8.18393552 61.4163208 5.38017273 C58.23631733 4.34945558 55.62169932 4.25454713 52.27929688 4.25878906 C51.0015741 4.25571243 49.72385132 4.2526358 48.40740967 4.24946594 C47.02258116 4.25636159 45.63775445 4.26362839 44.25292969 4.27124023 C42.82757611 4.27243302 41.40222173 4.27288499 39.97686768 4.27262878 C36.99787437 4.27418929 34.01900197 4.2824489 31.04003906 4.29589844 C27.21426545 4.31294952 23.38862379 4.31671079 19.56281662 4.31595325 C16.62382743 4.3162245 13.68486731 4.32169727 10.74588776 4.3289547 C9.33442657 4.3321439 7.92296209 4.33410936 6.5114975 4.3348484 C4.54606446 4.33700579 2.58064361 4.34653394 0.61523438 4.35644531 C-1.06424286 4.36216301 -1.06424286 4.36216301 -2.77764893 4.36799622 C-5.23234873 4.21724949 -5.23234873 4.21724949 -6.29394531 5.50170898 Z " fill="#8F6EA0" transform="translate(32.2939453125,33.498291015625)"/>
<path d="M0 0 C0.66 -0.33 1.32 -0.66 2 -1 C7.00404498 -1.37766377 9.99885156 -1.11200434 14 2 C16.40632339 4.32334672 16.95222734 5.76591398 17.625 9.0625 C16.22049162 17.91090282 9.17011259 26.74191743 2 32 C-0.46875 32.9453125 -0.46875 32.9453125 -3 33 C-10.59257173 27.90251368 -17.97985311 18.18574667 -19.75 9.1875 C-18.73976143 4.89398608 -17.11064354 3.11064354 -14 0 C-9.75030193 -2.12484903 -4.44861506 -1.19770405 0 0 Z " fill="#EA7799" transform="translate(55,49)"/>
<path d="M0 0 C0.66 -0.33 1.32 -0.66 2 -1 C7.00404498 -1.37766377 9.99885156 -1.11200434 14 2 C16.40632339 4.32334672 16.95222734 5.76591398 17.625 9.0625 C16.22049162 17.91090282 9.17011259 26.74191743 2 32 C-0.46875 32.9453125 -0.46875 32.9453125 -3 33 C-10.59257173 27.90251368 -17.97985311 18.18574667 -19.75 9.1875 C-18.73976143 4.89398608 -17.11064354 3.11064354 -14 0 C-9.75030193 -2.12484903 -4.44861506 -1.19770405 0 0 Z M-13.5 4.5 C-15.11794696 7.19657826 -15.51504286 8.83326479 -14.87890625 11.93359375 C-12.21863158 18.18819509 -6.79548631 23.31227743 -2 28 C1.78218127 26.46294916 3.9369256 24.15470258 6.625 21.125 C7.40101562 20.26132813 8.17703125 19.39765625 8.9765625 18.5078125 C11.37176067 15.53924643 12.78090675 13.25196142 13.4375 9.5 C13.19923095 6.78470245 13.19923095 6.78470245 10.8125 4.6875 C7.80265479 2.88159288 6.43089242 2.44363907 3 3 C2.34 3.66 1.68 4.32 1 5 C-1.1875 4.6875 -1.1875 4.6875 -4 4 C-8.95483802 2.74547654 -8.95483802 2.74547654 -13.5 4.5 Z " fill="#9570A1" transform="translate(55,49)"/>
<path d="M0 0 C4.44546628 0.06373428 6.9059423 1.38127593 10.3125 4.3125 C13.19766342 7.7746961 13.85167865 10.80046884 13.6640625 15.3203125 C12.89169747 19.69704766 10.37576048 22.4264496 7.0625 25.1875 C3.25522203 26.74502281 0.41324792 26.58588319 -3.6875 26.3125 C-5.40317792 24.59682208 -4.81765825 22.33877265 -4.8203125 20 C-4.82160156 18.92492187 -4.82289062 17.84984375 -4.82421875 16.7421875 C-4.81841797 15.04449219 -4.81841797 15.04449219 -4.8125 13.3125 C-4.81636719 12.18070313 -4.82023437 11.04890625 -4.82421875 9.8828125 C-4.82292969 8.80773437 -4.82164063 7.73265625 -4.8203125 6.625 C-4.81918457 5.63113281 -4.81805664 4.63726562 -4.81689453 3.61328125 C-4.6023769 -0.20108502 -4.00016042 0.33899665 0 0 Z " fill="#8F71A3" transform="translate(86.6875,43.6875)"/>
<path d="M0 0 C6 1 6 1 8.4375 3.0625 C10.68307513 7.28418125 10.11935528 9.3733315 9 14 C7.8125 15.9375 7.8125 15.9375 6 17 C4.02 17.33 2.04 17.66 0 18 C0 12.06 0 6.12 0 0 Z " fill="#BADBF7" transform="translate(86,48)"/>
<path d="M0 0 C0.67224609 -0.01224609 1.34449219 -0.02449219 2.03710938 -0.03710938 C5.73628237 -0.04812975 7.27721933 0.08064622 10.4375 2.1875 C10.1075 3.1775 9.7775 4.1675 9.4375 5.1875 C8.33792969 5.14109375 7.23835938 5.0946875 6.10546875 5.046875 C-2.07769888 4.81052799 -8.78020048 4.87455972 -16.36328125 8.41015625 C-18.89214933 9.30401904 -20.07917144 9.09104517 -22.5625 8.1875 C-21.5625 5.1875 -21.5625 5.1875 -19.41796875 4.0546875 C-18.53753906 3.72726563 -17.65710937 3.39984375 -16.75 3.0625 C-15.87730469 2.72992187 -15.00460938 2.39734375 -14.10546875 2.0546875 C-9.25116431 0.39930258 -5.17820986 0.02530894 0 0 Z " fill="#9075A6" transform="translate(63.5625,15.8125)"/>
<path d="M0 0 C0.99 0 1.98 0 3 0 C3.33 2.31 3.66 4.62 4 7 C2.68 7 1.36 7 0 7 C-0.38133299 5.0085944 -0.71325582 3.00720923 -1 1 C-0.67 0.67 -0.34 0.34 0 0 Z " fill="#9279A9" transform="translate(73,103)"/>
<path d="M0 0 C5.75 0.875 5.75 0.875 8 2 C8 2.99 8 3.98 8 5 C5.69 4.67 3.38 4.34 1 4 C0.67 2.68 0.34 1.36 0 0 Z " fill="#9075A6" transform="translate(79,20)"/>
<path d="M0 0 C1.875 0.1875 1.875 0.1875 4 1 C5.25 3.5625 5.25 3.5625 6 6 C4.68 6.33 3.36 6.66 2 7 C0 4 0 4 0 0 Z " fill="#9176A7" transform="translate(82,99)"/>
<path d="M0 0 C0.99 0.33 1.98 0.66 3 1 C3 2.98 3 4.96 3 7 C1.68 7 0.36 7 -1 7 C-1.04254356 5.00045254 -1.04080783 2.99958364 -1 1 C-0.67 0.67 -0.34 0.34 0 0 Z " fill="#8E6FA1" transform="translate(63,104)"/>
<path d="M0 0 C1.32 0 2.64 0 4 0 C3.67 2.31 3.34 4.62 3 7 C1.68 7 0.36 7 -1 7 C-0.67 4.69 -0.34 2.38 0 0 Z " fill="#9075A6" transform="translate(52,103)"/>
<path d="M0 0 C0.99 0 1.98 0 3 0 C2.67 1.98 2.34 3.96 2 6 C0.68 6.33 -0.64 6.66 -2 7 C-1.125 1.125 -1.125 1.125 0 0 Z " fill="#8F72A4" transform="translate(43,99)"/>
</svg>
