<?xml version="1.0" encoding="UTF-8"?>
<svg version="1.1" xmlns="http://www.w3.org/2000/svg" width="144" height="144">
<path d="M0 0 C1.11697266 -0.020625 2.23394531 -0.04125 3.38476562 -0.0625 C21.23764357 -0.14529596 36.25601616 6.33375457 49.4375 18.25 C50.14519531 18.87648438 50.85289063 19.50296875 51.58203125 20.1484375 C63.72075101 31.52123421 72.23846821 48.30698495 72.87109375 64.9921875 C72.88813237 67.36973097 72.88922915 69.74743806 72.875 72.125 C72.89498047 73.30191406 72.91496094 74.47882813 72.93554688 75.69140625 C72.92526339 94.38678574 64.83313337 110.38419029 52.1484375 123.6640625 C44.19580816 131.25 44.19580816 131.25 40.4375 131.25 C39.03393555 129.73144531 39.03393555 129.73144531 37.57421875 127.578125 C36.74942017 126.37905518 36.74942017 126.37905518 35.90795898 125.15576172 C35.02539429 123.84115967 35.02539429 123.84115967 34.125 122.5 C32.85959447 120.65349541 31.59396324 118.80714548 30.328125 116.9609375 C29.68166016 116.01057617 29.03519531 115.06021484 28.36914062 114.08105469 C25.40584718 109.73798709 22.39227221 105.43066482 19.375 101.125 C18.79580811 100.29645508 18.21661621 99.46791016 17.61987305 98.61425781 C13.25699487 92.38453311 8.81677193 86.21397154 4.34716797 80.06054688 C-0.42269984 73.47961307 -5.08475257 66.82560652 -9.71875 60.1484375 C-10.80091318 58.59298782 -11.88908367 57.04169636 -12.98388672 55.49511719 C-14.05348453 53.97392612 -15.10150641 52.4373752 -16.12939453 50.88769531 C-16.6345459 50.15389648 -17.13969727 49.42009766 -17.66015625 48.6640625 C-18.09980713 48.00615723 -18.53945801 47.34825195 -18.99243164 46.67041016 C-20.53704107 44.99251977 -20.53704107 44.99251977 -23.18139648 44.97412109 C-25.51414304 44.99463447 -25.51414304 44.99463447 -26.5625 46.25 C-26.6560919 47.96865409 -26.67994611 49.69115744 -26.67602539 51.41235352 C-26.67594986 52.51341934 -26.67587433 53.61448517 -26.67579651 54.74891663 C-26.67063522 55.9468132 -26.66547394 57.14470978 -26.66015625 58.37890625 C-26.6587413 59.59827377 -26.65732635 60.8176413 -26.65586853 62.07395935 C-26.65024967 65.9868307 -26.63769396 69.89964581 -26.625 73.8125 C-26.61998743 76.45768147 -26.6154241 79.10286383 -26.61132812 81.74804688 C-26.60027411 88.24871726 -26.58351764 94.74935461 -26.5625 101.25 C-24.17181266 102.35636395 -24.17181266 102.35636395 -21.5625 103.25 C-19.44399352 102.47024852 -19.44399352 102.47024852 -18.94360352 100.66308594 C-18.41573403 97.32070157 -18.44001148 94.01422859 -18.46484375 90.640625 C-18.4662587 89.91381531 -18.46767365 89.18700562 -18.46913147 88.43817139 C-18.47471208 86.12540506 -18.48726096 83.81273688 -18.5 81.5 C-18.50501751 79.92838682 -18.50957998 78.35677211 -18.51367188 76.78515625 C-18.52467515 72.94006657 -18.54192639 69.0950499 -18.5625 65.25 C-14.35418622 66.65277126 -12.96355809 69.69414447 -10.625 73.25 C-9.63648279 74.7207692 -8.64686291 76.19079776 -7.65625 77.66015625 C-7.14578125 78.42086426 -6.6353125 79.18157227 -6.109375 79.96533203 C-3.66518405 83.57529713 -1.14729923 87.13186506 1.375 90.6875 C1.87314209 91.39132813 2.37128418 92.09515625 2.88452148 92.8203125 C3.89646208 94.25008348 4.90875059 95.67960827 5.92138672 97.10888672 C8.92498033 101.35067674 11.92049862 105.59817878 14.9152832 109.84619141 C17.53149806 113.55583334 20.15498795 117.26004447 22.7890625 120.95703125 C23.61083984 122.11332031 23.61083984 122.11332031 24.44921875 123.29296875 C25.49904181 124.76983848 26.55101437 126.24518337 27.60546875 127.71875 C28.07855469 128.38519531 28.55164063 129.05164063 29.0390625 129.73828125 C29.45494629 130.32134033 29.87083008 130.90439941 30.29931641 131.50512695 C31.50786627 133.35787381 32.48509125 135.25519327 33.4375 137.25 C31.60741133 138.04913872 29.77323034 138.83890755 27.9375 139.625 C26.9165625 140.06585938 25.895625 140.50671875 24.84375 140.9609375 C9.37907095 146.81339631 -11.32643845 146.91454821 -26.5625 140.25 C-45.5930819 131.53959461 -60.11702384 117.40094749 -67.9140625 97.86328125 C-74.66432504 78.12240554 -73.08087468 57.83074611 -64.375 39.0625 C-54.81589994 20.86148431 -39.24371748 8.5657342 -19.96484375 1.94140625 C-13.30042045 0.02335271 -6.89391089 0.03107115 0 0 Z M19.4375 42.25 C19.07049278 45.10154073 18.89730217 47.72928838 18.86328125 50.58984375 C18.8485527 51.4265712 18.83382416 52.26329865 18.81864929 53.12538147 C18.79465673 54.90323739 18.77926446 56.68122668 18.77172852 58.45922852 C18.75031661 61.14774545 18.67032736 63.83033851 18.58789062 66.51757812 C18.4359614 76.44805651 18.92672767 82.79866019 25.61401367 90.54907227 C27.1437684 92.36368424 27.1437684 92.36368424 28.4375 92.25 C28.51345711 85.32665012 28.56606051 78.40340737 28.60229492 71.47973633 C28.61739747 69.12357569 28.63788091 66.76744323 28.66381836 64.41137695 C28.70013656 61.02808688 28.71721167 57.64516792 28.73046875 54.26171875 C28.74595261 53.20538742 28.76143646 52.14905609 28.77738953 51.06071472 C28.77761612 50.07992447 28.77784271 49.09913422 28.77807617 48.08862305 C28.78473801 47.22480515 28.79139984 46.36098724 28.79826355 45.47099304 C28.60065883 43.18258087 28.60065883 43.18258087 27.10371399 41.44758606 C23.96792292 39.1937461 22.48001519 40.22165654 19.4375 42.25 Z " fill="#FFFFFF" transform="translate(71.5625,-0.25)"/>
</svg>
