<?xml version="1.0" encoding="UTF-8"?>
<svg version="1.1" xmlns="http://www.w3.org/2000/svg" width="1280" height="960">
<path d="M0 0 C422.4 0 844.8 0 1280 0 C1280 316.8 1280 633.6 1280 960 C857.6 960 435.2 960 0 960 C0 643.2 0 326.4 0 0 Z " fill="#D7D7D7" transform="translate(0,0)"/>
<path d="M0 0 C81.51 0 163.02 0 247 0 C247 61.05 247 122.1 247 185 C223.42785552 185 223.42785552 185 217.19773865 179.0007782 C216.41189896 178.10977921 215.62605927 177.21878021 214.81640625 176.30078125 C213.50706871 174.89872185 213.50706871 174.89872185 212.17127991 173.46833801 C202.88181999 162.76402349 199.16910234 150.57296784 195.48088074 137.12843323 C193.80395774 131.13853456 191.90763033 125.21082194 190.04296875 119.27734375 C189.83973621 118.62379536 189.63650368 117.97024696 189.42711258 117.29689407 C185.38068126 104.33802331 180.03465222 92.26966386 173.75 80.25 C173.3051828 79.3977182 172.8603656 78.5454364 172.40206909 77.66732788 C169.99159539 73.07905733 167.52666967 68.52525726 165 64 C163.10515339 66.84226992 162.20635907 69.03441588 161.15234375 72.25 C160.62169312 73.85681641 160.62169312 73.85681641 160.08032227 75.49609375 C159.51462524 77.23052734 159.51462524 77.23052734 158.9375 79 C158.54554443 80.18722656 158.15358887 81.37445313 157.74975586 82.59765625 C156.49553114 86.39703578 155.24689309 90.19821027 154 94 C152.35953784 99.00178582 150.71274693 104.00143089 149.0625 109 C148.49680298 110.73443359 148.49680298 110.73443359 147.91967773 112.50390625 C147.3890271 114.11072266 147.3890271 114.11072266 146.84765625 115.75 C146.53836182 116.69359375 146.22906738 117.6371875 145.91040039 118.609375 C145 121 145 121 143 124 C140.7575531 124.84414673 140.7575531 124.84414673 137.91577148 125.52587891 C136.31029198 125.92998489 136.31029198 125.92998489 134.67237854 126.34225464 C133.50045456 126.63407623 132.32853058 126.92589783 131.12109375 127.2265625 C99.59125416 135.73224058 77.23940502 143.80176863 57.22827148 171.43212891 C52.9609375 176.734375 52.9609375 176.734375 42 185 C28.14 185 14.28 185 0 185 C0 123.95 0 62.9 0 0 Z " fill="#FEFEFE" transform="translate(516,386)"/>
<path d="M0 0 C108.57 0 217.14 0 329 0 C329 88.11 329 176.22 329 267 C220.43 267 111.86 267 0 267 C0 178.89 0 90.78 0 0 Z M21 21 C21 95.25 21 169.5 21 246 C115.71 246 210.42 246 308 246 C308 171.75 308 97.5 308 21 C213.29 21 118.58 21 21 21 Z " fill="#FEFEFE" transform="translate(475,345)"/>
<path d="M0 0 C6.29922334 5.33098829 10.21949825 12.30588499 11.34375 20.5078125 C11.7145423 30.36470783 8.5437695 39.5922263 2 47 C-5.75739094 53.49229672 -13.27104674 55.60735296 -23.32421875 55.4375 C-31.10838361 54.51101066 -37.60204791 50.88862512 -43 45.25 C-49.8657534 36.33627126 -51.365276 27.11382566 -50 16 C-47.47014358 7.58207068 -41.81800763 1.15552638 -34.375 -3.375 C-23.00275625 -8.85052477 -10.16330826 -7.06750114 0 0 Z " fill="#D7D7D7" transform="translate(608,413)"/>
</svg>
