<?xml version="1.0" encoding="UTF-8"?>
<svg version="1.1" xmlns="http://www.w3.org/2000/svg" width="144" height="165">
<path d="M0 0 C1.98 0.495 1.98 0.495 4 1 C3.34859227 8.78364506 1.21067002 16.11237519 -0.8671875 23.6171875 C-1.26226169 25.06035536 -1.65679104 26.50367246 -2.05081177 27.9471283 C-2.88655198 31.00533548 -3.72542736 34.06265689 -4.56689453 37.11929321 C-6.54446597 44.30410463 -8.50519714 51.49351786 -10.46671295 58.68272591 C-10.90067564 60.27299308 -11.33483425 61.86320681 -11.76918793 63.45336723 C-15.69516234 77.82669033 -19.5127478 92.22585329 -23.25463867 106.64819336 C-23.66572011 108.23164254 -24.07693321 109.81505755 -24.48828125 111.3984375 C-24.68787949 112.16686478 -24.88747772 112.93529205 -25.09312439 113.727005 C-26.72967586 120.00699655 -28.4122034 126.27414928 -30.10546875 132.5390625 C-30.36433868 133.49783798 -30.62320862 134.45661346 -30.8899231 135.44444275 C-32.13823591 140.06505561 -33.391009 144.68439397 -34.65039062 149.30200195 C-35.09387119 150.93958307 -35.53723701 152.57719527 -35.98046875 154.21484375 C-36.18608932 154.96259064 -36.3917099 155.71033752 -36.6035614 156.48074341 C-37.39422061 159.41315376 -38 161.94740191 -38 165 C-38.8264502 164.96970703 -39.65290039 164.93941406 -40.50439453 164.90820312 C-63.46232641 164.10493812 -86.40539508 163.90956494 -109.375 163.9375 C-110.08385597 163.93835602 -110.79271194 163.93921204 -111.5230484 163.94009399 C-120.34872217 163.9515388 -129.17436333 163.97169336 -138 164 C-135.57132303 153.55968538 -133.09600727 143.13391934 -130.44506836 132.74755859 C-130.10145178 131.39523976 -129.76138393 130.04201509 -129.42456055 128.68798828 C-128.92496261 126.68055187 -128.41485427 124.67604837 -127.90234375 122.671875 C-127.60835693 121.5075293 -127.31437012 120.34318359 -127.01147461 119.14355469 C-126.00924661 116.02873747 -124.92932742 113.63889952 -123 111 C-121.515 110.505 -121.515 110.505 -120 110 C-116.776062 108.63226873 -116.04194517 108.06291775 -114 105 C-113.01 105 -112.02 105 -111 105 C-108.94729537 103.15811388 -108.94729537 103.15811388 -108 101 C-107.01 101 -106.02 101 -105 101 C-104.34 100.34 -103.68 99.68 -103 99 C-102.34 98.690625 -101.68 98.38125 -101 98.0625 C-98.67868591 97.03213141 -98.67868591 97.03213141 -97 94 C-95.67696283 93.6278958 -94.34262065 93.29369827 -93 93 C-92.34 92.34 -91.68 91.68 -91 91 C-89 89.66666667 -87 88.33333333 -85 87 C-85 85.39462389 -85.01226212 83.78842964 -85.08203125 82.18457031 C-84.91043797 77.61487775 -83.28883325 73.23497193 -82 68.875 C-81.43154841 66.9366313 -80.86883683 64.99656797 -80.3125 63.0546875 C-80.06113281 62.20374512 -79.80976562 61.35280273 -79.55078125 60.47607422 C-78.97832849 57.90257425 -78.978367 55.62678675 -79 53 C-78.67 52.01 -78.34 51.02 -78 50 C-76 49.33333333 -74 48.66666667 -72 48 C-71.01 47.01 -71.01 47.01 -70 46 C-67 44 -67 44 -64.9375 43 C-62.83805638 42.04074983 -62.83805638 42.04074983 -61 40 C-58 38 -58 38 -55 37 C-54.01 36.01 -54.01 36.01 -53 35 C-51.66666667 34.33333333 -50.33333333 33.66666667 -49 33 C-48.01 32.01 -48.01 32.01 -47 31 C-38 25 -38 25 -35 24 C-34.34 23.34 -33.68 22.68 -33 22 C-31.66666667 21.33333333 -30.33333333 20.66666667 -29 20 C-28.34 19.34 -27.68 18.68 -27 18 C-25.66666667 17.33333333 -24.33333333 16.66666667 -23 16 C-22.01 15.2575 -22.01 15.2575 -21 14.5 C-19 13 -19 13 -16.875 12 C-14.66622819 11.01189614 -14.66622819 11.01189614 -13 8 C-11.67696283 7.6278958 -10.34262065 7.29369827 -9 7 C-8.34 6.34 -7.68 5.68 -7 5 C-4 3 -4 3 -1 2 C-0.67 1.34 -0.34 0.68 0 0 Z M-43 57 C-42 61 -42 61 -42 61 Z M-44 61 C-43 64 -43 64 -43 64 Z M-52 65 C-51.67 66.98 -51.34 68.96 -51 71 C-50.01 71.33 -49.02 71.66 -48 72 C-46.22240124 67.03079316 -46.22240124 67.03079316 -47 62 C-48.96822886 62 -50.50528545 63.84280164 -52 65 Z M-45 64 C-44 68 -44 68 -44 68 Z M-57 68 C-56 70 -56 70 -56 70 Z M-46 68 C-45 72 -45 72 -45 72 Z M-59 69 C-59 72 -59 72 -59 72 Z M-62 71 C-62 74 -62 74 -62 74 Z M-52 71 C-51 75 -51 75 -51 75 Z M-47 72 C-46 75 -46 75 -46 75 Z M-65 73 C-65 76 -65 76 -65 76 Z M-50 74 C-49 77 -49 77 -49 77 Z M-68 75 C-67 77 -67 77 -67 77 Z M-53 75 C-52 78 -52 78 -52 78 Z M-48 75 C-48 76.65 -48 78.3 -48 80 C-47.67 80 -47.34 80 -47 80 C-47 78.35 -47 76.7 -47 75 C-47.33 75 -47.66 75 -48 75 Z M-71 77 C-70 79 -70 79 -70 79 Z M-54 78 C-53 82 -53 82 -53 82 Z M-51 78 C-50 81 -50 81 -50 81 Z M-74 79 C-73 81 -73 81 -73 81 Z M-49 80 C-48 83 -48 83 -48 83 Z M-77 81 C-76.67 81.66 -76.34 82.32 -76 83 C-75.67 82.34 -75.34 81.68 -75 81 C-75.66 81 -76.32 81 -77 81 Z M-52 81 C-51 84 -51 84 -51 84 Z M-55 82 C-54 86 -54 86 -54 86 Z M-80 83 C-79 85 -79 85 -79 85 Z M-50 83 C-49 87 -49 87 -49 87 Z M-82 84 C-82 87 -82 87 -82 87 Z M-53 85 C-53.33 85.66 -53.66 86.32 -54 87 C-53.01 86.67 -52.02 86.34 -51 86 C-51.66 85.67 -52.32 85.34 -53 85 Z M-56 86 C-55 89 -55 89 -55 89 Z M-51 87 C-50 91 -50 91 -50 91 Z M-57 89 C-57 90.65 -57 92.3 -57 94 C-56.67 94 -56.34 94 -56 94 C-56 92.35 -56 90.7 -56 89 C-56.33 89 -56.66 89 -57 89 Z M-54 89 C-53 92 -53 92 -53 92 Z M-52 91 C-51 94 -51 94 -51 94 Z M-55 92 C-54 95 -54 95 -54 95 Z M-58 94 C-57 97 -57 97 -57 97 Z M-53 94 C-52 98 -52 98 -52 98 Z M-59 97 C-58 101 -58 101 -58 101 Z M-54 98 C-53 102 -53 102 -53 102 Z M-57 100 C-56 103 -56 103 -56 103 Z M-60 101 C-59 105 -59 105 -59 105 Z M-55 102 C-54 106 -54 106 -54 106 Z M-58 103 C-57 106 -57 106 -57 106 Z M-61 105 C-60 108 -60 108 -60 108 Z M-56 106 C-55 109 -55 109 -55 109 Z M-62 108 C-61 112 -61 112 -61 112 Z M-59 108 C-58 111 -58 111 -58 111 Z M-57 109 C-57 110.65 -57 112.3 -57 114 C-56.67 114 -56.34 114 -56 114 C-56 112.35 -56 110.7 -56 109 C-56.33 109 -56.66 109 -57 109 Z M-60 111 C-59 114 -59 114 -59 114 Z M-63 112 C-62 116 -62 116 -62 116 Z M-58 114 C-57 117 -57 117 -57 117 Z M-64 116 C-63 120 -63 120 -63 120 Z M-59 117 C-58 120 -58 120 -58 120 Z M-62 119 C-61 122 -61 122 -61 122 Z M-65 120 C-64 124 -64 124 -64 124 Z M-60 120 C-60 121.65 -60 123.3 -60 125 C-59.67 125 -59.34 125 -59 125 C-59 123.35 -59 121.7 -59 120 C-59.33 120 -59.66 120 -60 120 Z M-63 123 C-62 125 -62 125 -62 125 Z M-66 124 C-65 128 -65 128 -65 128 Z M-61 125 C-60 128 -60 128 -60 128 Z M-67 128 C-66 131 -66 131 -66 131 Z M-62 128 C-61 132 -61 132 -61 132 Z M-68 131 C-67 135 -67 135 -67 135 Z M-65 131 C-64 134 -64 134 -64 134 Z M-63 132 C-62 136 -62 136 -62 136 Z M-66 134 C-65 136 -65 136 -65 136 Z M-69 135 C-68 139 -68 139 -68 139 Z M-64 136 C-63 139 -63 139 -63 139 Z M-70 139 C-69 142 -69 142 -69 142 Z M-65 139 C-64 143 -64 143 -64 143 Z M-71 142 C-71 143.65 -71 145.3 -71 147 C-70.67 147 -70.34 147 -70 147 C-70 145.35 -70 143.7 -70 142 C-70.33 142 -70.66 142 -71 142 Z M-68 142 C-67 144 -67 144 -67 144 Z M-66 143 C-65 147 -65 147 -65 147 Z M-69 145 C-68 147 -68 147 -68 147 Z M-72 147 C-71 150 -71 150 -71 150 Z M-67 147 C-66 150 -66 150 -66 150 Z M-73 150 C-72 154 -72 154 -72 154 Z M-70 150 C-69 152 -69 152 -69 152 Z M-68 150 C-67 154 -67 154 -67 154 Z M-71 153 C-70 155 -70 155 -70 155 Z M-74 154 C-73 158 -73 158 -73 158 Z M-69 154 C-68 158 -68 158 -68 158 Z M-72 156 C-71 159 -71 159 -71 159 Z M-75 158 C-74 161 -74 161 -74 161 Z M-70 158 C-69 162 -69 162 -69 162 Z " fill="#3C99FE" transform="translate(139,0)"/>
<path d="M0 0 C2.74313975 8.22941926 -2.0475428 19.5318825 -4.265625 27.6484375 C-4.58150574 28.82225983 -4.89738647 29.99608215 -5.22283936 31.20547485 C-6.22653928 34.93011985 -7.23813715 38.65256535 -8.25 42.375 C-8.91327953 44.83189117 -9.57604376 47.2889215 -10.23828125 49.74609375 C-14.13077172 64.17173165 -18.06860614 78.58488918 -22 93 C-42.46 93 -62.92 93 -84 93 C-79.02338358 71.84938022 -79.02338358 71.84938022 -76.44506836 61.74755859 C-76.10145178 60.39523976 -75.76138393 59.04201509 -75.42456055 57.68798828 C-74.92496261 55.68055187 -74.41485427 53.67604837 -73.90234375 51.671875 C-73.60835693 50.5075293 -73.31437012 49.34318359 -73.01147461 48.14355469 C-72.02316662 45.07199937 -70.77694933 42.68003035 -69 40 C-68.01 40.33 -67.02 40.66 -66 41 C-61.79767396 41 -59.17360238 38.83185312 -55.75 36.625 C-55.03618164 36.17165283 -54.32236328 35.71830566 -53.58691406 35.2512207 C-48.32351376 31.89275303 -43.11703172 28.45060917 -37.93530273 24.96777344 C-32.5966777 21.38137306 -27.20969511 17.87251122 -21.8125 14.375 C-14.50431581 9.63770093 -7.22632577 4.86161348 0 0 Z " fill="#0C2B58" transform="translate(85,71)"/>
<path d="M0 0 C1.65 0 3.3 0 5 0 C4.40472513 5.65849125 3.36581196 10.9369935 1.84765625 16.4140625 C1.63198502 17.20996796 1.41631378 18.00587341 1.19410706 18.82589722 C0.48838078 21.42693311 -0.2246021 24.02592156 -0.9375 26.625 C-1.94106108 30.31449199 -2.94103276 34.00495516 -3.94140625 37.6953125 C-4.19615723 38.63292419 -4.4509082 39.57053589 -4.71337891 40.53656006 C-6.43136115 46.86822166 -8.11736789 53.20758175 -9.77734375 59.5546875 C-9.99803024 60.39810699 -10.21871674 61.24152649 -10.4460907 62.11050415 C-11.2916334 65.34518907 -12.1361998 68.58011686 -12.97628784 71.81622314 C-15.77887989 82.60885172 -18.79555347 93.3196318 -22 104 C-23.32 104 -24.64 104 -26 104 C-24.58964566 96.39395885 -22.75503275 88.94314975 -20.76953125 81.46875 C-20.45602219 80.27938843 -20.14251312 79.09002686 -19.81950378 77.86462402 C-18.8199421 74.07567747 -17.81621897 70.2878471 -16.8125 66.5 C-16.1579453 64.01959927 -15.50364644 61.53913102 -14.84960938 59.05859375 C-13.23218469 52.92855569 -11.60412104 46.80139516 -9.97369385 40.67480469 C-8.98107806 36.92858696 -8.00032321 33.17939889 -7.02099609 29.4296875 C-6.39309186 27.0468254 -5.76500702 24.66401087 -5.13671875 22.28125 C-4.84980667 21.17189087 -4.56289459 20.06253174 -4.26728821 18.91955566 C-3.99821152 17.90518433 -3.72913483 16.89081299 -3.4519043 15.84570312 C-3.10230904 14.50916687 -3.10230904 14.50916687 -2.74565125 13.14562988 C-1.92531625 10.78509567 -0.73673625 9.73673625 1 8 C1.36442233 6.33985384 1.69972883 4.67293936 2 3 C1.01 3.66 0.02 4.32 -1 5 C-0.67 3.35 -0.34 1.7 0 0 Z M-1 14 C0 17 0 17 0 17 Z M-2 18 C-1 21 -1 21 -1 21 Z M-3 21 C-2 24 -2 24 -2 24 Z M-4 25 C-4.33 25.66 -4.66 26.32 -5 27 C-4.01 26.67 -3.02 26.34 -2 26 C-2.66 25.67 -3.32 25.34 -4 25 Z M-5 29 C-4 32 -4 32 -4 32 Z M-6 32 C-5 35 -5 35 -5 35 Z M-8 40 C-7 43 -7 43 -7 43 Z M-9 43 C-8 46 -8 46 -8 46 Z M-10 48 C-9 51 -9 51 -9 51 Z M-11 51 C-10 54 -10 54 -10 54 Z M-13 59 C-12 62 -12 62 -12 62 Z M-14 63 C-13 65 -13 65 -13 65 Z M-16 71 C-15 74 -15 74 -15 74 Z M-17 74 C-16 76 -16 76 -16 76 Z M-19 82 C-18 84 -18 84 -18 84 Z M-20 85 C-19 87 -19 87 -19 87 Z M-21 90 C-20 92 -20 92 -20 92 Z M-22 93 C-21 95 -21 95 -21 95 Z M-23 96 C-22 99 -22 99 -22 99 Z " fill="#8EA4CD" transform="translate(90,60)"/>
<path d="M0 0 C0.33 0 0.66 0 1 0 C0.82834046 7.22530608 -0.66248721 13.76971056 -2.78442383 20.6328125 C-4.84962405 27.35209666 -6.63282424 34.12788207 -8.375 40.9375 C-11.01804121 51.2378422 -13.73402475 61.51529792 -16.51293945 71.77978516 C-18.22731065 78.1162403 -19.91026182 84.45959394 -21.5625 90.8125 C-23.28965992 97.44906746 -25.15042447 104.03949221 -27.0625 110.625 C-29.14821482 117.81206419 -31.01128553 125.01298968 -32.66992188 132.30981445 C-33.6953779 136.79834798 -34.8933787 141.18381192 -36.2734375 145.57421875 C-37.69886949 150.33332232 -38.8305155 155.1727661 -40 160 C-40.66 159.67 -41.32 159.34 -42 159 C-38.63772379 143.83911495 -34.51892127 128.88074459 -30.44263458 113.90027618 C-28.90257611 108.23589718 -27.37000069 102.56948489 -25.83669662 96.90327454 C-25.45636656 95.49782433 -25.07594733 94.09239825 -24.69543839 92.68699646 C-21.62503238 81.3452186 -18.59764373 69.99281374 -15.625 58.625 C-10.50675276 39.05914264 -5.25850395 19.52856916 0 0 Z " fill="#9FC2FD" transform="translate(143,5)"/>
<path d="M0 0 C0.66 0 1.32 0 2 0 C2.17388013 5.05425069 1.62336649 9.29600362 0.3203125 14.17578125 C0.06107498 15.1526313 0.06107498 15.1526313 -0.20339966 16.1492157 C-0.56741479 17.51247622 -0.93570471 18.87460197 -1.30810547 20.2355957 C-1.87742623 22.32138886 -2.42981044 24.4111647 -2.98046875 26.50195312 C-3.337549 27.83099627 -3.69558787 29.15978231 -4.0546875 30.48828125 C-4.37937012 31.69009033 -4.70405273 32.89189941 -5.03857422 34.13012695 C-6 37 -6 37 -8 39 C-8.99 39 -9.98 39 -11 39 C-9.54799079 31.0804622 -7.5951956 23.33401002 -5.5 15.5625 C-5.19191406 14.39267578 -4.88382812 13.22285156 -4.56640625 12.01757812 C-4.26605469 10.89931641 -3.96570313 9.78105469 -3.65625 8.62890625 C-3.38619141 7.61900635 -3.11613281 6.60910645 -2.83789062 5.56860352 C-2 3 -2 3 0 0 Z M-1 6 C0 9 0 9 0 9 Z M-2 9 C-1 11 -1 11 -1 11 Z M-4 17 C-3 19 -3 19 -3 19 Z M-5 20 C-4 22 -4 22 -4 22 Z M-6 25 C-5 27 -5 27 -5 27 Z M-7 28 C-6 30 -6 30 -6 30 Z M-8 31 C-7 34 -7 34 -7 34 Z " fill="#A6B9D6" transform="translate(75,125)"/>
<path d="M0 0 C1.65 0 3.3 0 5 0 C4.40257533 3.6082178 4.13524338 3.90192274 0.9296875 6.2265625 C-0.41495219 7.03763108 -1.76707531 7.83637545 -3.125 8.625 C-4.58339587 9.50033458 -6.04039343 10.37800245 -7.49609375 11.2578125 C-8.61540283 11.93118652 -8.61540283 11.93118652 -9.75732422 12.61816406 C-13.9430764 15.19723627 -17.99089642 17.98516095 -22.03759766 20.77587891 C-25.25539493 22.96254893 -28.31844877 24.72428357 -32 26 C-32 24.35 -32 22.7 -32 21 C-31.38125 20.896875 -30.7625 20.79375 -30.125 20.6875 C-27.63473516 20.12474627 -27.63473516 20.12474627 -26 17 C-25.01 17 -24.02 17 -23 17 C-20.94729537 15.15811388 -20.94729537 15.15811388 -20 13 C-19.01 13 -18.02 13 -17 13 C-16.34 12.34 -15.68 11.68 -15 11 C-14.34 10.690625 -13.68 10.38125 -13 10.0625 C-10.67868591 9.03213141 -10.67868591 9.03213141 -9 6 C-7.67696283 5.6278958 -6.34262065 5.29369827 -5 5 C-4.34 4.34 -3.68 3.68 -3 3 C-2.01 2.34 -1.02 1.68 0 1 C0 0.67 0 0.34 0 0 Z " fill="#7F8DA1" transform="translate(51,88)"/>
<path d="M0 0 C0.99 0.33 1.98 0.66 3 1 C2.875 2.75 2.875 2.75 2 5 C-3.22222222 9 -3.22222222 9 -6 9 C-6 9.66 -6 10.32 -6 11 C-7.0725 11.495 -8.145 11.99 -9.25 12.5 C-15.1789487 15.4431472 -20.55354737 19.26010253 -26 23 C-26.66 22.67 -27.32 22.34 -28 22 C-28 20.68 -28 19.36 -28 18 C-26 17.33333333 -24 16.66666667 -22 16 C-21.34 15.34 -20.68 14.68 -20 14 C-18.66666667 13.33333333 -17.33333333 12.66666667 -16 12 C-15.34 11.34 -14.68 10.68 -14 10 C-12.66666667 9.33333333 -11.33333333 8.66666667 -10 8 C-9.34 7.505 -8.68 7.01 -8 6.5 C-6 5 -6 5 -3.875 4 C-1.66622819 3.01189614 -1.66622819 3.01189614 0 0 Z " fill="#93C0FD" transform="translate(126,8)"/>
<path d="M0 0 C0.66 0 1.32 0 2 0 C0.49790402 9.75028375 -2.05959316 19.17776787 -4.625 28.6875 C-5.04987928 30.27528361 -5.47436141 31.86317355 -5.8984375 33.45117188 C-6.92772182 37.30202115 -7.96235335 41.15139601 -9 45 C-9.33 45 -9.66 45 -10 45 C-8.99555312 31.18885539 -4.72475721 17.70186272 -0.953125 4.4375 C0.044532 1.43392466 0.044532 1.43392466 0 0 Z " fill="#929AA7" transform="translate(10,117)"/>
<path d="M0 0 C1.32 0.33 2.64 0.66 4 1 C3.88557539 2.60495567 3.75805306 4.20898119 3.625 5.8125 C3.55539063 6.70582031 3.48578125 7.59914063 3.4140625 8.51953125 C3 11 3 11 1 14 C1 12.02 1 10.04 1 8 C-1.31 9.65 -3.62 11.3 -6 13 C-6.66 12.67 -7.32 12.34 -8 12 C-7.34 9.36 -6.68 6.72 -6 4 C-5.34 4 -4.68 4 -4 4 C-3.34 3.34 -2.68 2.68 -2 2 C-1.67 2.33 -1.34 2.66 -1 3 C-0.67 2.01 -0.34 1.02 0 0 Z M-2 4 C-1 6 -1 6 -1 6 Z M-4 5 C-4 8 -4 8 -4 8 Z " fill="#8499B7" transform="translate(84,64)"/>
<path d="M0 0 C2 1 2 1 4 3 C2.69522778 6.91431665 1.01326694 7.57812588 -2.4375 9.75 C-3.92056641 10.70132813 -3.92056641 10.70132813 -5.43359375 11.671875 C-6.28050781 12.11015625 -7.12742187 12.5484375 -8 13 C-8.66 12.67 -9.32 12.34 -10 12 C-10.625 8.9375 -10.625 8.9375 -11 6 C-10.01 6.33 -9.02 6.66 -8 7 C-7.67 6.01 -7.34 5.02 -7 4 C-6.01 3.34 -5.02 2.68 -4 2 C-3.01 2.66 -2.02 3.32 -1 4 C-0.67 2.68 -0.34 1.36 0 0 Z M-4 4 C-3 6 -3 6 -3 6 Z M-7 6 C-6 8 -6 8 -6 8 Z M-10 8 C-9.67 8.66 -9.34 9.32 -9 10 C-8.67 9.34 -8.34 8.68 -8 8 C-8.66 8 -9.32 8 -10 8 Z " fill="#8598B7" transform="translate(72,73)"/>
<path d="M0 0 C1.65 0 3.3 0 5 0 C4.41632611 6.30367803 2.95928381 11.98660063 1 18 C0.01 18 -0.98 18 -2 18 C-2.125 14.625 -2.125 14.625 -2 11 C-1 10 0 9 1 8 C1.36442233 6.33985384 1.69972883 4.67293936 2 3 C1.01 3.66 0.02 4.32 -1 5 C-0.67 3.35 -0.34 1.7 0 0 Z M-1 14 C0 17 0 17 0 17 Z " fill="#B4CFF4" transform="translate(90,60)"/>
<path d="M0 0 C1.36138702 3.74085476 0.62045822 6.30572847 -0.43359375 10.078125 C-0.75263672 11.23828125 -1.07167969 12.3984375 -1.40039062 13.59375 C-1.74263672 14.8003125 -2.08488281 16.006875 -2.4375 17.25 C-2.77587891 18.47203125 -3.11425781 19.6940625 -3.46289062 20.953125 C-4.29995517 23.97127322 -5.1459559 26.98662083 -6 30 C-6.66 30 -7.32 30 -8 30 C-6.41057918 19.75241838 -4.02062349 9.58487921 0 0 Z " fill="#ADCFFD" transform="translate(59,54)"/>
<path d="M0 0 C1.65 0 3.3 0 5 0 C4.83984375 1.765625 4.83984375 1.765625 4 4 C1.56640625 5.921875 1.56640625 5.921875 -1.4375 7.75 C-2.42621094 8.36359375 -3.41492187 8.9771875 -4.43359375 9.609375 C-7 11 -7 11 -9 11 C-9 9.35 -9 7.7 -9 6 C-8.38125 5.87625 -7.7625 5.7525 -7.125 5.625 C-4.80879168 5.12802644 -4.80879168 5.12802644 -3 3 C-2.01 2.34 -1.02 1.68 0 1 C0 0.67 0 0.34 0 0 Z " fill="#788395" transform="translate(51,88)"/>
<path d="M0 0 C1.32 0.33 2.64 0.66 4 1 C3.67 3.64 3.34 6.28 3 9 C2.34 7.68 1.68 6.36 1 5 C-0.98 6.32 -2.96 7.64 -5 9 C-5.66 8.67 -6.32 8.34 -7 8 C-7 6.68 -7 5.36 -7 4 C-5 3.33333333 -3 2.66666667 -1 2 C-0.67 1.34 -0.34 0.68 0 0 Z " fill="#93C1FD" transform="translate(139,0)"/>
<path d="M0 0 C0.33 0 0.66 0 1 0 C0.48517081 5.852795 -0.45357192 11.3297637 -2 17 C-2.66 16.01 -3.32 15.02 -4 14 C-4.99 14.495 -4.99 14.495 -6 15 C-5.34 11.7 -4.68 8.4 -4 5 C-3.01 4.67 -2.02 4.34 -1 4 C-0.26676204 1.98491642 -0.26676204 1.98491642 0 0 Z M-3 8 C-2 11 -2 11 -2 11 Z " fill="#93AFD9" transform="translate(80,111)"/>
<path d="M0 0 C0.66 0 1.32 0 2 0 C2.17835515 4.54805635 1.99785435 7.8794254 0 12 C-0.99 12 -1.98 12 -3 12 C-2.88541307 10.56163249 -2.75790884 9.12429034 -2.625 7.6875 C-2.55539063 6.88699219 -2.48578125 6.08648437 -2.4140625 5.26171875 C-2 3 -2 3 0 0 Z M-1 6 C0 9 0 9 0 9 Z M-2 9 C-1 11 -1 11 -1 11 Z " fill="#B6C4E3" transform="translate(75,125)"/>
<path d="M0 0 C0.33 0.99 0.66 1.98 1 3 C1.99 2.67 2.98 2.34 4 2 C3.34 5.3 2.68 8.6 2 12 C1.34 10.68 0.68 9.36 0 8 C-0.66 8.99 -1.32 9.98 -2 11 C-1 3.57142857 -1 3.57142857 0 0 Z " fill="#87A2C6" transform="translate(71,135)"/>
<path d="M0 0 C1.32 0.33 2.64 0.66 4 1 C3.88557539 2.60495567 3.75805306 4.20898119 3.625 5.8125 C3.55539063 6.70582031 3.48578125 7.59914063 3.4140625 8.51953125 C3 11 3 11 1 14 C1.03255208 11.94921875 1.06510417 9.8984375 1.09765625 7.84765625 C1.20561184 5.98267859 1.20561184 5.98267859 0 5 C-0.04063832 3.33382885 -0.042721 1.66611905 0 0 Z " fill="#A3B5D6" transform="translate(84,64)"/>
<path d="M0 0 C0.66 0.33 1.32 0.66 2 1 C2 1.99 2 2.98 2 4 C-3.75 7 -3.75 7 -6 7 C-6 5.35 -6 3.7 -6 2 C-5.38125 1.855625 -4.7625 1.71125 -4.125 1.5625 C-1.96741678 1.06847775 -1.96741678 1.06847775 0 0 Z " fill="#80ACFD" transform="translate(118,15)"/>
<path d="M0 0 C0.33 0 0.66 0 1 0 C1.08096803 1.45742463 1.13917774 2.91612807 1.1875 4.375 C1.22230469 5.18710938 1.25710937 5.99921875 1.29296875 6.8359375 C1.19628906 7.55007812 1.09960938 8.26421875 1 9 C0.01 9.66 -0.98 10.32 -2 11 C-1 3.57142857 -1 3.57142857 0 0 Z " fill="#8AC2FC" transform="translate(94,68)"/>
<path d="M0 0 C0.33 0 0.66 0 1 0 C1.08096803 1.45742463 1.13917774 2.91612807 1.1875 4.375 C1.22230469 5.18710937 1.25710937 5.99921875 1.29296875 6.8359375 C1.19628906 7.55007812 1.09960938 8.26421875 1 9 C0.01 9.66 -0.98 10.32 -2 11 C-1 3.57142857 -1 3.57142857 0 0 Z " fill="#86C0FD" transform="translate(60,58)"/>
<path d="M0 0 C2 3 2 3 2 6 C1.34 6 0.68 6 0 6 C-0.33 7.65 -0.66 9.3 -1 11 C-2.60080151 6.99799622 -1.29279692 3.95443764 0 0 Z " fill="#7787A0" transform="translate(9,132)"/>
<path d="" fill="#B7C2CF" transform="translate(0,0)"/>
<path d="" fill="#657995" transform="translate(0,0)"/>
<path d="" fill="#73859F" transform="translate(0,0)"/>
<path d="" fill="#BDC5D1" transform="translate(0,0)"/>
<path d="" fill="#778499" transform="translate(0,0)"/>
<path d="" fill="#9FACBE" transform="translate(0,0)"/>
<path d="" fill="#E4E7EC" transform="translate(0,0)"/>
<path d="" fill="#C0C8D3" transform="translate(0,0)"/>
<path d="" fill="#C2D1E5" transform="translate(0,0)"/>
<path d="" fill="#C7CED9" transform="translate(0,0)"/>
<path d="" fill="#BFC8D3" transform="translate(0,0)"/>
<path d="" fill="#BAC3D0" transform="translate(0,0)"/>
<path d="" fill="#7C8DA5" transform="translate(0,0)"/>
<path d="" fill="#C6CED8" transform="translate(0,0)"/>
<path d="" fill="#BEC7D3" transform="translate(0,0)"/>
<path d="" fill="#AEBAC8" transform="translate(0,0)"/>
<path d="" fill="#C0CFE2" transform="translate(0,0)"/>
<path d="" fill="#B5D7FC" transform="translate(0,0)"/>
<path d="" fill="#49A1FE" transform="translate(0,0)"/>
<path d="" fill="#090B21" transform="translate(0,0)"/>
<path d="" fill="#FCFDFD" transform="translate(0,0)"/>
<path d="" fill="#E7F2FF" transform="translate(0,0)"/>
<path d="" fill="#AFD4FD" transform="translate(0,0)"/>
<path d="" fill="#C9E1FC" transform="translate(0,0)"/>
<path d="" fill="#D5E9FE" transform="translate(0,0)"/>
<path d="" fill="#C6E1FE" transform="translate(0,0)"/>
<path d="" fill="#DAEAFC" transform="translate(0,0)"/>
<path d="" fill="#CCE4FF" transform="translate(0,0)"/>
<path d="" fill="#9FCCFD" transform="translate(0,0)"/>
<path d="" fill="#ACD3FD" transform="translate(0,0)"/>
<path d="" fill="#D9E9FC" transform="translate(0,0)"/>
<path d="" fill="#84BFFE" transform="translate(0,0)"/>
<path d="" fill="#D4E7FC" transform="translate(0,0)"/>
<path d="" fill="#C8E2FE" transform="translate(0,0)"/>
<path d="" fill="#DDECFD" transform="translate(0,0)"/>
<path d="" fill="#CFE5FC" transform="translate(0,0)"/>
<path d="" fill="#ECF5FE" transform="translate(0,0)"/>
<path d="" fill="#B6D7FC" transform="translate(0,0)"/>
<path d="" fill="#BDDCFE" transform="translate(0,0)"/>
<path d="" fill="#B6D9FF" transform="translate(0,0)"/>
<path d="" fill="#C2DEFD" transform="translate(0,0)"/>
<path d="" fill="#E7F2FE" transform="translate(0,0)"/>
<path d="" fill="#DCEBFC" transform="translate(0,0)"/>
<path d="" fill="#95C9FF" transform="translate(0,0)"/>
<path d="" fill="#A8D2FE" transform="translate(0,0)"/>
<path d="" fill="#DEEEFF" transform="translate(0,0)"/>
<path d="" fill="#BEDCFD" transform="translate(0,0)"/>
<path d="" fill="#D1E7FF" transform="translate(0,0)"/>
<path d="" fill="#A8D2FE" transform="translate(0,0)"/>
<path d="" fill="#87C0FE" transform="translate(0,0)"/>
<path d="" fill="#C9E3FF" transform="translate(0,0)"/>
<path d="" fill="#AAD3FE" transform="translate(0,0)"/>
<path d="" fill="#BFDDFF" transform="translate(0,0)"/>
<path d="" fill="#0954FF" transform="translate(0,0)"/>
<path d="" fill="#B3D7FE" transform="translate(0,0)"/>
</svg>
